ISO-10303-21;
HEADER;
/* Generated by software containing ST-Developer
 * from STEP Tools, Inc. (www.steptools.com) 
 */
/* OPTION: using custom renumber hook */

FILE_DESCRIPTION(
/* description */ ('STEP AP242 Edition 2',
'CAx-IF Rec.Pracs.---Representation and Presentation of Product Manufa
cturing Information (PMI)---4.0---2014-10-13',
'CAx-IF Rec.Pracs.---3D Tessellated Geometry---0.4---2014-09-14','2;1',
'CAx-IF Rec.Pracs.---User Defined Attributes---1.5---2016-08-15'),
/* implementation_level */ '2;1');

FILE_NAME(
/* name */ 'Housing - Part 2',
/* time_stamp */ '2026-08-31T01:52:43Z',
/* author */ (''),
/* organization */ (''),
/* preprocessor_version */ 'ST-DEVELOPER v20',
/* originating_system */ 'ONSHAPE BY PTC INC, 1.220',
/* authorisation */ '  ');

FILE_SCHEMA (('AP242_MANAGED_MODEL_BASED_3D_ENGINEERING_MIM_LF { 1 0 10303 442 3 1 4 }'));
ENDSEC;

DATA;
#10=SHAPE_REPRESENTATION_RELATIONSHIP('','',#1213,#11);
#11=ADVANCED_BREP_SHAPE_REPRESENTATION('',(#1211),#1891);
#12=ORIENTED_EDGE('',*,*,#344,.F.);
#13=ORIENTED_EDGE('',*,*,#345,.F.);
#14=ORIENTED_EDGE('',*,*,#346,.T.);
#15=ORIENTED_EDGE('',*,*,#347,.F.);
#16=ORIENTED_EDGE('',*,*,#348,.F.);
#17=ORIENTED_EDGE('',*,*,#349,.T.);
#18=ORIENTED_EDGE('',*,*,#350,.T.);
#19=ORIENTED_EDGE('',*,*,#351,.T.);
#20=ORIENTED_EDGE('',*,*,#352,.T.);
#21=ORIENTED_EDGE('',*,*,#353,.T.);
#22=ORIENTED_EDGE('',*,*,#354,.F.);
#23=ORIENTED_EDGE('',*,*,#355,.F.);
#24=ORIENTED_EDGE('',*,*,#356,.F.);
#25=ORIENTED_EDGE('',*,*,#357,.F.);
#26=ORIENTED_EDGE('',*,*,#358,.F.);
#27=ORIENTED_EDGE('',*,*,#359,.T.);
#28=ORIENTED_EDGE('',*,*,#360,.F.);
#29=ORIENTED_EDGE('',*,*,#361,.F.);
#30=ORIENTED_EDGE('',*,*,#362,.F.);
#31=ORIENTED_EDGE('',*,*,#363,.T.);
#32=ORIENTED_EDGE('',*,*,#364,.T.);
#33=ORIENTED_EDGE('',*,*,#351,.F.);
#34=ORIENTED_EDGE('',*,*,#365,.F.);
#35=ORIENTED_EDGE('',*,*,#366,.T.);
#36=ORIENTED_EDGE('',*,*,#367,.T.);
#37=ORIENTED_EDGE('',*,*,#368,.F.);
#38=ORIENTED_EDGE('',*,*,#369,.T.);
#39=ORIENTED_EDGE('',*,*,#347,.T.);
#40=ORIENTED_EDGE('',*,*,#370,.T.);
#41=ORIENTED_EDGE('',*,*,#362,.T.);
#42=ORIENTED_EDGE('',*,*,#350,.F.);
#43=ORIENTED_EDGE('',*,*,#371,.F.);
#44=ORIENTED_EDGE('',*,*,#372,.F.);
#45=ORIENTED_EDGE('',*,*,#373,.F.);
#46=ORIENTED_EDGE('',*,*,#374,.F.);
#47=ORIENTED_EDGE('',*,*,#375,.T.);
#48=ORIENTED_EDGE('',*,*,#371,.T.);
#49=ORIENTED_EDGE('',*,*,#353,.F.);
#50=ORIENTED_EDGE('',*,*,#376,.F.);
#51=ORIENTED_EDGE('',*,*,#377,.T.);
#52=ORIENTED_EDGE('',*,*,#378,.F.);
#53=ORIENTED_EDGE('',*,*,#379,.F.);
#54=ORIENTED_EDGE('',*,*,#380,.T.);
#55=ORIENTED_EDGE('',*,*,#381,.F.);
#56=ORIENTED_EDGE('',*,*,#364,.F.);
#57=ORIENTED_EDGE('',*,*,#382,.T.);
#58=ORIENTED_EDGE('',*,*,#345,.T.);
#59=ORIENTED_EDGE('',*,*,#383,.T.);
#60=ORIENTED_EDGE('',*,*,#376,.T.);
#61=ORIENTED_EDGE('',*,*,#352,.F.);
#62=ORIENTED_EDGE('',*,*,#384,.F.);
#63=ORIENTED_EDGE('',*,*,#385,.T.);
#64=ORIENTED_EDGE('',*,*,#386,.T.);
#65=ORIENTED_EDGE('',*,*,#387,.T.);
#66=ORIENTED_EDGE('',*,*,#357,.T.);
#67=ORIENTED_EDGE('',*,*,#388,.F.);
#68=ORIENTED_EDGE('',*,*,#349,.F.);
#69=ORIENTED_EDGE('',*,*,#389,.T.);
#70=ORIENTED_EDGE('',*,*,#390,.F.);
#71=ORIENTED_EDGE('',*,*,#391,.T.);
#72=ORIENTED_EDGE('',*,*,#392,.T.);
#73=ORIENTED_EDGE('',*,*,#393,.F.);
#74=ORIENTED_EDGE('',*,*,#389,.F.);
#75=ORIENTED_EDGE('',*,*,#394,.T.);
#76=ORIENTED_EDGE('',*,*,#395,.T.);
#77=ORIENTED_EDGE('',*,*,#354,.T.);
#78=ORIENTED_EDGE('',*,*,#396,.T.);
#79=ORIENTED_EDGE('',*,*,#397,.T.);
#80=ORIENTED_EDGE('',*,*,#398,.F.);
#81=ORIENTED_EDGE('',*,*,#399,.T.);
#82=ORIENTED_EDGE('',*,*,#395,.F.);
#83=ORIENTED_EDGE('',*,*,#400,.F.);
#84=ORIENTED_EDGE('',*,*,#401,.T.);
#85=ORIENTED_EDGE('',*,*,#355,.T.);
#86=ORIENTED_EDGE('',*,*,#402,.T.);
#87=ORIENTED_EDGE('',*,*,#403,.T.);
#88=ORIENTED_EDGE('',*,*,#404,.T.);
#89=ORIENTED_EDGE('',*,*,#405,.F.);
#90=ORIENTED_EDGE('',*,*,#401,.F.);
#91=ORIENTED_EDGE('',*,*,#406,.F.);
#92=ORIENTED_EDGE('',*,*,#388,.T.);
#93=ORIENTED_EDGE('',*,*,#356,.T.);
#94=ORIENTED_EDGE('',*,*,#370,.F.);
#95=ORIENTED_EDGE('',*,*,#346,.F.);
#96=ORIENTED_EDGE('',*,*,#382,.F.);
#97=ORIENTED_EDGE('',*,*,#363,.F.);
#98=ORIENTED_EDGE('',*,*,#407,.T.);
#99=ORIENTED_EDGE('',*,*,#398,.T.);
#100=ORIENTED_EDGE('',*,*,#408,.F.);
#101=ORIENTED_EDGE('',*,*,#375,.F.);
#102=ORIENTED_EDGE('',*,*,#374,.T.);
#103=ORIENTED_EDGE('',*,*,#409,.T.);
#104=ORIENTED_EDGE('',*,*,#399,.F.);
#105=ORIENTED_EDGE('',*,*,#407,.F.);
#106=ORIENTED_EDGE('',*,*,#373,.T.);
#107=ORIENTED_EDGE('',*,*,#410,.T.);
#108=ORIENTED_EDGE('',*,*,#396,.F.);
#109=ORIENTED_EDGE('',*,*,#409,.F.);
#110=ORIENTED_EDGE('',*,*,#372,.T.);
#111=ORIENTED_EDGE('',*,*,#408,.T.);
#112=ORIENTED_EDGE('',*,*,#397,.F.);
#113=ORIENTED_EDGE('',*,*,#410,.F.);
#114=ORIENTED_EDGE('',*,*,#411,.T.);
#115=ORIENTED_EDGE('',*,*,#358,.T.);
#116=ORIENTED_EDGE('',*,*,#412,.F.);
#117=ORIENTED_EDGE('',*,*,#385,.F.);
#118=ORIENTED_EDGE('',*,*,#412,.T.);
#119=ORIENTED_EDGE('',*,*,#361,.T.);
#120=ORIENTED_EDGE('',*,*,#413,.F.);
#121=ORIENTED_EDGE('',*,*,#386,.F.);
#122=ORIENTED_EDGE('',*,*,#413,.T.);
#123=ORIENTED_EDGE('',*,*,#360,.T.);
#124=ORIENTED_EDGE('',*,*,#414,.F.);
#125=ORIENTED_EDGE('',*,*,#387,.F.);
#126=ORIENTED_EDGE('',*,*,#384,.T.);
#127=ORIENTED_EDGE('',*,*,#414,.T.);
#128=ORIENTED_EDGE('',*,*,#359,.F.);
#129=ORIENTED_EDGE('',*,*,#411,.F.);
#130=ORIENTED_EDGE('',*,*,#415,.T.);
#131=ORIENTED_EDGE('',*,*,#378,.T.);
#132=ORIENTED_EDGE('',*,*,#416,.F.);
#133=ORIENTED_EDGE('',*,*,#403,.F.);
#134=ORIENTED_EDGE('',*,*,#416,.T.);
#135=ORIENTED_EDGE('',*,*,#381,.T.);
#136=ORIENTED_EDGE('',*,*,#417,.F.);
#137=ORIENTED_EDGE('',*,*,#404,.F.);
#138=ORIENTED_EDGE('',*,*,#405,.T.);
#139=ORIENTED_EDGE('',*,*,#417,.T.);
#140=ORIENTED_EDGE('',*,*,#380,.F.);
#141=ORIENTED_EDGE('',*,*,#418,.F.);
#142=ORIENTED_EDGE('',*,*,#418,.T.);
#143=ORIENTED_EDGE('',*,*,#379,.T.);
#144=ORIENTED_EDGE('',*,*,#415,.F.);
#145=ORIENTED_EDGE('',*,*,#402,.F.);
#146=ORIENTED_EDGE('',*,*,#419,.T.);
#147=ORIENTED_EDGE('',*,*,#365,.T.);
#148=ORIENTED_EDGE('',*,*,#420,.F.);
#149=ORIENTED_EDGE('',*,*,#391,.F.);
#150=ORIENTED_EDGE('',*,*,#420,.T.);
#151=ORIENTED_EDGE('',*,*,#368,.T.);
#152=ORIENTED_EDGE('',*,*,#421,.F.);
#153=ORIENTED_EDGE('',*,*,#392,.F.);
#154=ORIENTED_EDGE('',*,*,#393,.T.);
#155=ORIENTED_EDGE('',*,*,#421,.T.);
#156=ORIENTED_EDGE('',*,*,#367,.F.);
#157=ORIENTED_EDGE('',*,*,#422,.F.);
#158=ORIENTED_EDGE('',*,*,#390,.T.);
#159=ORIENTED_EDGE('',*,*,#422,.T.);
#160=ORIENTED_EDGE('',*,*,#366,.F.);
#161=ORIENTED_EDGE('',*,*,#419,.F.);
#162=ORIENTED_EDGE('',*,*,#383,.F.);
#163=ORIENTED_EDGE('',*,*,#423,.F.);
#164=ORIENTED_EDGE('',*,*,#424,.F.);
#165=ORIENTED_EDGE('',*,*,#425,.F.);
#166=ORIENTED_EDGE('',*,*,#426,.T.);
#167=ORIENTED_EDGE('',*,*,#427,.F.);
#168=ORIENTED_EDGE('',*,*,#369,.F.);
#169=ORIENTED_EDGE('',*,*,#377,.F.);
#170=ORIENTED_EDGE('',*,*,#428,.F.);
#171=ORIENTED_EDGE('',*,*,#429,.F.);
#172=ORIENTED_EDGE('',*,*,#430,.T.);
#173=ORIENTED_EDGE('',*,*,#431,.T.);
#174=ORIENTED_EDGE('',*,*,#432,.F.);
#175=ORIENTED_EDGE('',*,*,#433,.T.);
#176=ORIENTED_EDGE('',*,*,#434,.F.);
#177=ORIENTED_EDGE('',*,*,#435,.F.);
#178=ORIENTED_EDGE('',*,*,#436,.F.);
#179=ORIENTED_EDGE('',*,*,#437,.T.);
#180=ORIENTED_EDGE('',*,*,#438,.T.);
#181=ORIENTED_EDGE('',*,*,#439,.F.);
#182=ORIENTED_EDGE('',*,*,#440,.T.);
#183=ORIENTED_EDGE('',*,*,#441,.T.);
#184=ORIENTED_EDGE('',*,*,#442,.T.);
#185=ORIENTED_EDGE('',*,*,#443,.T.);
#186=ORIENTED_EDGE('',*,*,#433,.F.);
#187=ORIENTED_EDGE('',*,*,#444,.T.);
#188=ORIENTED_EDGE('',*,*,#348,.T.);
#189=ORIENTED_EDGE('',*,*,#427,.T.);
#190=ORIENTED_EDGE('',*,*,#445,.F.);
#191=ORIENTED_EDGE('',*,*,#446,.F.);
#192=ORIENTED_EDGE('',*,*,#447,.T.);
#193=ORIENTED_EDGE('',*,*,#423,.T.);
#194=ORIENTED_EDGE('',*,*,#344,.T.);
#195=ORIENTED_EDGE('',*,*,#448,.F.);
#196=ORIENTED_EDGE('',*,*,#441,.F.);
#197=ORIENTED_EDGE('',*,*,#449,.F.);
#198=ORIENTED_EDGE('',*,*,#450,.T.);
#199=ORIENTED_EDGE('',*,*,#451,.T.);
#200=ORIENTED_EDGE('',*,*,#452,.F.);
#201=ORIENTED_EDGE('',*,*,#453,.F.);
#202=ORIENTED_EDGE('',*,*,#454,.F.);
#203=ORIENTED_EDGE('',*,*,#455,.T.);
#204=ORIENTED_EDGE('',*,*,#456,.T.);
#205=ORIENTED_EDGE('',*,*,#457,.F.);
#206=ORIENTED_EDGE('',*,*,#424,.T.);
#207=ORIENTED_EDGE('',*,*,#447,.F.);
#208=ORIENTED_EDGE('',*,*,#426,.F.);
#209=ORIENTED_EDGE('',*,*,#458,.T.);
#210=ORIENTED_EDGE('',*,*,#459,.F.);
#211=ORIENTED_EDGE('',*,*,#460,.F.);
#212=ORIENTED_EDGE('',*,*,#461,.T.);
#213=ORIENTED_EDGE('',*,*,#462,.T.);
#214=ORIENTED_EDGE('',*,*,#463,.T.);
#215=ORIENTED_EDGE('',*,*,#445,.T.);
#216=ORIENTED_EDGE('',*,*,#464,.F.);
#217=ORIENTED_EDGE('',*,*,#465,.T.);
#218=ORIENTED_EDGE('',*,*,#428,.T.);
#219=ORIENTED_EDGE('',*,*,#466,.F.);
#220=ORIENTED_EDGE('',*,*,#467,.T.);
#221=ORIENTED_EDGE('',*,*,#468,.F.);
#222=ORIENTED_EDGE('',*,*,#469,.T.);
#223=ORIENTED_EDGE('',*,*,#429,.T.);
#224=ORIENTED_EDGE('',*,*,#465,.F.);
#225=ORIENTED_EDGE('',*,*,#470,.F.);
#226=ORIENTED_EDGE('',*,*,#471,.T.);
#227=ORIENTED_EDGE('',*,*,#472,.F.);
#228=ORIENTED_EDGE('',*,*,#473,.T.);
#229=ORIENTED_EDGE('',*,*,#466,.T.);
#230=ORIENTED_EDGE('',*,*,#431,.F.);
#231=ORIENTED_EDGE('',*,*,#474,.F.);
#232=ORIENTED_EDGE('',*,*,#475,.F.);
#233=ORIENTED_EDGE('',*,*,#471,.F.);
#234=ORIENTED_EDGE('',*,*,#476,.F.);
#235=ORIENTED_EDGE('',*,*,#468,.T.);
#236=ORIENTED_EDGE('',*,*,#477,.F.);
#237=ORIENTED_EDGE('',*,*,#478,.F.);
#238=ORIENTED_EDGE('',*,*,#479,.T.);
#239=ORIENTED_EDGE('',*,*,#480,.T.);
#240=ORIENTED_EDGE('',*,*,#481,.T.);
#241=ORIENTED_EDGE('',*,*,#450,.F.);
#242=ORIENTED_EDGE('',*,*,#482,.F.);
#243=ORIENTED_EDGE('',*,*,#483,.T.);
#244=ORIENTED_EDGE('',*,*,#449,.T.);
#245=ORIENTED_EDGE('',*,*,#440,.F.);
#246=ORIENTED_EDGE('',*,*,#484,.F.);
#247=ORIENTED_EDGE('',*,*,#482,.T.);
#248=ORIENTED_EDGE('',*,*,#451,.F.);
#249=ORIENTED_EDGE('',*,*,#481,.F.);
#250=ORIENTED_EDGE('',*,*,#485,.T.);
#251=ORIENTED_EDGE('',*,*,#434,.T.);
#252=ORIENTED_EDGE('',*,*,#480,.F.);
#253=ORIENTED_EDGE('',*,*,#486,.T.);
#254=ORIENTED_EDGE('',*,*,#487,.F.);
#255=ORIENTED_EDGE('',*,*,#488,.F.);
#256=ORIENTED_EDGE('',*,*,#483,.F.);
#257=ORIENTED_EDGE('',*,*,#484,.T.);
#258=ORIENTED_EDGE('',*,*,#439,.T.);
#259=ORIENTED_EDGE('',*,*,#489,.F.);
#260=ORIENTED_EDGE('',*,*,#490,.T.);
#261=ORIENTED_EDGE('',*,*,#472,.T.);
#262=ORIENTED_EDGE('',*,*,#475,.T.);
#263=ORIENTED_EDGE('',*,*,#467,.F.);
#264=ORIENTED_EDGE('',*,*,#491,.T.);
#265=ORIENTED_EDGE('',*,*,#492,.T.);
#266=ORIENTED_EDGE('',*,*,#435,.T.);
#267=ORIENTED_EDGE('',*,*,#485,.F.);
#268=ORIENTED_EDGE('',*,*,#460,.T.);
#269=ORIENTED_EDGE('',*,*,#493,.F.);
#270=ORIENTED_EDGE('',*,*,#455,.F.);
#271=ORIENTED_EDGE('',*,*,#494,.T.);
#272=ORIENTED_EDGE('',*,*,#474,.T.);
#273=ORIENTED_EDGE('',*,*,#430,.F.);
#274=ORIENTED_EDGE('',*,*,#469,.F.);
#275=ORIENTED_EDGE('',*,*,#476,.T.);
#276=ORIENTED_EDGE('',*,*,#478,.T.);
#277=ORIENTED_EDGE('',*,*,#495,.T.);
#278=ORIENTED_EDGE('',*,*,#496,.T.);
#279=ORIENTED_EDGE('',*,*,#497,.F.);
#280=ORIENTED_EDGE('',*,*,#487,.T.);
#281=ORIENTED_EDGE('',*,*,#498,.F.);
#282=ORIENTED_EDGE('',*,*,#496,.F.);
#283=ORIENTED_EDGE('',*,*,#499,.T.);
#284=ORIENTED_EDGE('',*,*,#497,.T.);
#285=ORIENTED_EDGE('',*,*,#498,.T.);
#286=ORIENTED_EDGE('',*,*,#486,.F.);
#287=ORIENTED_EDGE('',*,*,#479,.F.);
#288=ORIENTED_EDGE('',*,*,#477,.T.);
#289=ORIENTED_EDGE('',*,*,#488,.T.);
#290=ORIENTED_EDGE('',*,*,#499,.F.);
#291=ORIENTED_EDGE('',*,*,#495,.F.);
#292=ORIENTED_EDGE('',*,*,#500,.F.);
#293=ORIENTED_EDGE('',*,*,#501,.T.);
#294=ORIENTED_EDGE('',*,*,#489,.T.);
#295=ORIENTED_EDGE('',*,*,#438,.F.);
#296=ORIENTED_EDGE('',*,*,#436,.T.);
#297=ORIENTED_EDGE('',*,*,#492,.F.);
#298=ORIENTED_EDGE('',*,*,#502,.F.);
#299=ORIENTED_EDGE('',*,*,#503,.T.);
#300=ORIENTED_EDGE('',*,*,#503,.F.);
#301=ORIENTED_EDGE('',*,*,#504,.F.);
#302=ORIENTED_EDGE('',*,*,#500,.T.);
#303=ORIENTED_EDGE('',*,*,#437,.F.);
#304=ORIENTED_EDGE('',*,*,#470,.T.);
#305=ORIENTED_EDGE('',*,*,#464,.T.);
#306=ORIENTED_EDGE('',*,*,#473,.F.);
#307=ORIENTED_EDGE('',*,*,#490,.F.);
#308=ORIENTED_EDGE('',*,*,#501,.F.);
#309=ORIENTED_EDGE('',*,*,#504,.T.);
#310=ORIENTED_EDGE('',*,*,#502,.T.);
#311=ORIENTED_EDGE('',*,*,#491,.F.);
#312=ORIENTED_EDGE('',*,*,#446,.T.);
#313=ORIENTED_EDGE('',*,*,#463,.F.);
#314=ORIENTED_EDGE('',*,*,#505,.F.);
#315=ORIENTED_EDGE('',*,*,#452,.T.);
#316=ORIENTED_EDGE('',*,*,#453,.T.);
#317=ORIENTED_EDGE('',*,*,#505,.T.);
#318=ORIENTED_EDGE('',*,*,#462,.F.);
#319=ORIENTED_EDGE('',*,*,#506,.F.);
#320=ORIENTED_EDGE('',*,*,#456,.F.);
#321=ORIENTED_EDGE('',*,*,#493,.T.);
#322=ORIENTED_EDGE('',*,*,#459,.T.);
#323=ORIENTED_EDGE('',*,*,#507,.F.);
#324=ORIENTED_EDGE('',*,*,#458,.F.);
#325=ORIENTED_EDGE('',*,*,#425,.T.);
#326=ORIENTED_EDGE('',*,*,#457,.T.);
#327=ORIENTED_EDGE('',*,*,#507,.T.);
#328=ORIENTED_EDGE('',*,*,#454,.T.);
#329=ORIENTED_EDGE('',*,*,#506,.T.);
#330=ORIENTED_EDGE('',*,*,#461,.F.);
#331=ORIENTED_EDGE('',*,*,#494,.F.);
#332=ORIENTED_EDGE('',*,*,#406,.T.);
#333=ORIENTED_EDGE('',*,*,#508,.F.);
#334=ORIENTED_EDGE('',*,*,#442,.F.);
#335=ORIENTED_EDGE('',*,*,#448,.T.);
#336=ORIENTED_EDGE('',*,*,#400,.T.);
#337=ORIENTED_EDGE('',*,*,#509,.F.);
#338=ORIENTED_EDGE('',*,*,#443,.F.);
#339=ORIENTED_EDGE('',*,*,#508,.T.);
#340=ORIENTED_EDGE('',*,*,#394,.F.);
#341=ORIENTED_EDGE('',*,*,#444,.F.);
#342=ORIENTED_EDGE('',*,*,#432,.T.);
#343=ORIENTED_EDGE('',*,*,#509,.T.);
#344=EDGE_CURVE('',#510,#511,#618,.T.);
#345=EDGE_CURVE('',#512,#510,#619,.T.);
#346=EDGE_CURVE('',#512,#513,#620,.T.);
#347=EDGE_CURVE('',#514,#513,#621,.F.);
#348=EDGE_CURVE('',#515,#514,#622,.T.);
#349=EDGE_CURVE('',#515,#511,#623,.F.);
#350=EDGE_CURVE('',#516,#517,#624,.F.);
#351=EDGE_CURVE('',#517,#518,#625,.F.);
#352=EDGE_CURVE('',#518,#519,#626,.T.);
#353=EDGE_CURVE('',#519,#516,#627,.T.);
#354=EDGE_CURVE('',#520,#521,#628,.F.);
#355=EDGE_CURVE('',#522,#520,#629,.T.);
#356=EDGE_CURVE('',#523,#522,#630,.T.);
#357=EDGE_CURVE('',#521,#523,#631,.F.);
#358=EDGE_CURVE('',#524,#525,#632,.T.);
#359=EDGE_CURVE('',#524,#526,#633,.T.);
#360=EDGE_CURVE('',#527,#526,#634,.T.);
#361=EDGE_CURVE('',#525,#527,#635,.T.);
#362=EDGE_CURVE('',#528,#517,#636,.T.);
#363=EDGE_CURVE('',#528,#529,#637,.F.);
#364=EDGE_CURVE('',#529,#518,#638,.F.);
#365=EDGE_CURVE('',#530,#531,#639,.T.);
#366=EDGE_CURVE('',#530,#532,#640,.T.);
#367=EDGE_CURVE('',#532,#533,#641,.T.);
#368=EDGE_CURVE('',#531,#533,#642,.T.);
#369=EDGE_CURVE('',#534,#514,#643,.F.);
#370=EDGE_CURVE('',#513,#528,#644,.F.);
#371=EDGE_CURVE('',#534,#516,#645,.F.);
#372=EDGE_CURVE('',#535,#536,#646,.T.);
#373=EDGE_CURVE('',#537,#535,#647,.T.);
#374=EDGE_CURVE('',#538,#537,#648,.T.);
#375=EDGE_CURVE('',#538,#536,#649,.T.);
#376=EDGE_CURVE('',#539,#519,#650,.T.);
#377=EDGE_CURVE('',#539,#534,#651,.T.);
#378=EDGE_CURVE('',#540,#541,#652,.T.);
#379=EDGE_CURVE('',#542,#540,#653,.T.);
#380=EDGE_CURVE('',#542,#543,#654,.T.);
#381=EDGE_CURVE('',#541,#543,#655,.T.);
#382=EDGE_CURVE('',#529,#512,#656,.T.);
#383=EDGE_CURVE('',#510,#539,#657,.T.);
#384=EDGE_CURVE('',#544,#545,#658,.F.);
#385=EDGE_CURVE('',#544,#546,#659,.F.);
#386=EDGE_CURVE('',#546,#547,#660,.F.);
#387=EDGE_CURVE('',#547,#545,#661,.F.);
#388=EDGE_CURVE('',#511,#523,#662,.T.);
#389=EDGE_CURVE('',#515,#521,#663,.T.);
#390=EDGE_CURVE('',#548,#549,#664,.F.);
#391=EDGE_CURVE('',#548,#550,#665,.F.);
#392=EDGE_CURVE('',#550,#551,#666,.F.);
#393=EDGE_CURVE('',#549,#551,#667,.F.);
#394=EDGE_CURVE('',#515,#552,#668,.T.);
#395=EDGE_CURVE('',#552,#520,#669,.T.);
#396=EDGE_CURVE('',#553,#554,#670,.T.);
#397=EDGE_CURVE('',#554,#555,#671,.T.);
#398=EDGE_CURVE('',#556,#555,#672,.T.);
#399=EDGE_CURVE('',#556,#553,#673,.T.);
#400=EDGE_CURVE('',#557,#552,#674,.T.);
#401=EDGE_CURVE('',#557,#522,#675,.T.);
#402=EDGE_CURVE('',#558,#559,#676,.T.);
#403=EDGE_CURVE('',#559,#560,#677,.T.);
#404=EDGE_CURVE('',#560,#561,#678,.T.);
#405=EDGE_CURVE('',#558,#561,#679,.T.);
#406=EDGE_CURVE('',#511,#557,#680,.T.);
#407=EDGE_CURVE('',#538,#556,#681,.T.);
#408=EDGE_CURVE('',#536,#555,#682,.T.);
#409=EDGE_CURVE('',#537,#553,#683,.T.);
#410=EDGE_CURVE('',#535,#554,#684,.T.);
#411=EDGE_CURVE('',#544,#524,#685,.T.);
#412=EDGE_CURVE('',#546,#525,#686,.T.);
#413=EDGE_CURVE('',#547,#527,#687,.T.);
#414=EDGE_CURVE('',#545,#526,#688,.T.);
#415=EDGE_CURVE('',#559,#540,#689,.T.);
#416=EDGE_CURVE('',#560,#541,#690,.T.);
#417=EDGE_CURVE('',#561,#543,#691,.T.);
#418=EDGE_CURVE('',#558,#542,#692,.T.);
#419=EDGE_CURVE('',#548,#530,#693,.T.);
#420=EDGE_CURVE('',#550,#531,#694,.T.);
#421=EDGE_CURVE('',#551,#533,#695,.T.);
#422=EDGE_CURVE('',#549,#532,#696,.T.);
#423=EDGE_CURVE('',#562,#510,#697,.T.);
#424=EDGE_CURVE('',#563,#562,#698,.T.);
#425=EDGE_CURVE('',#564,#563,#699,.T.);
#426=EDGE_CURVE('',#564,#565,#700,.T.);
#427=EDGE_CURVE('',#514,#565,#701,.T.);
#428=EDGE_CURVE('',#566,#567,#702,.T.);
#429=EDGE_CURVE('',#568,#566,#703,.T.);
#430=EDGE_CURVE('',#568,#569,#704,.T.);
#431=EDGE_CURVE('',#569,#567,#705,.T.);
#432=EDGE_CURVE('',#570,#571,#706,.T.);
#433=EDGE_CURVE('',#570,#572,#707,.T.);
#434=EDGE_CURVE('',#573,#572,#708,.T.);
#435=EDGE_CURVE('',#574,#573,#709,.T.);
#436=EDGE_CURVE('',#575,#574,#710,.T.);
#437=EDGE_CURVE('',#575,#576,#711,.T.);
#438=EDGE_CURVE('',#576,#577,#712,.T.);
#439=EDGE_CURVE('',#578,#577,#713,.T.);
#440=EDGE_CURVE('',#578,#579,#714,.T.);
#441=EDGE_CURVE('',#579,#580,#715,.T.);
#442=EDGE_CURVE('',#580,#581,#716,.T.);
#443=EDGE_CURVE('',#581,#571,#717,.T.);
#444=EDGE_CURVE('',#570,#515,#718,.T.);
#445=EDGE_CURVE('',#582,#565,#719,.T.);
#446=EDGE_CURVE('',#583,#582,#720,.T.);
#447=EDGE_CURVE('',#583,#562,#721,.T.);
#448=EDGE_CURVE('',#580,#511,#722,.T.);
#449=EDGE_CURVE('',#584,#579,#723,.T.);
#450=EDGE_CURVE('',#584,#585,#724,.T.);
#451=EDGE_CURVE('',#585,#572,#725,.T.);
#452=EDGE_CURVE('',#586,#583,#726,.T.);
#453=EDGE_CURVE('',#587,#586,#727,.T.);
#454=EDGE_CURVE('',#588,#587,#728,.T.);
#455=EDGE_CURVE('',#588,#589,#729,.T.);
#456=EDGE_CURVE('',#589,#590,#730,.T.);
#457=EDGE_CURVE('',#563,#590,#731,.T.);
#458=EDGE_CURVE('',#564,#591,#732,.T.);
#459=EDGE_CURVE('',#592,#591,#733,.T.);
#460=EDGE_CURVE('',#593,#592,#734,.T.);
#461=EDGE_CURVE('',#593,#594,#735,.T.);
#462=EDGE_CURVE('',#594,#595,#736,.T.);
#463=EDGE_CURVE('',#595,#582,#737,.T.);
#464=EDGE_CURVE('',#596,#597,#738,.T.);
#465=EDGE_CURVE('',#596,#566,#739,.T.);
#466=EDGE_CURVE('',#597,#567,#740,.T.);
#467=EDGE_CURVE('',#598,#599,#741,.T.);
#468=EDGE_CURVE('',#600,#599,#742,.T.);
#469=EDGE_CURVE('',#600,#568,#743,.T.);
#470=EDGE_CURVE('',#598,#596,#744,.T.);
#471=EDGE_CURVE('',#601,#602,#745,.T.);
#472=EDGE_CURVE('',#603,#602,#746,.T.);
#473=EDGE_CURVE('',#603,#597,#747,.T.);
#474=EDGE_CURVE('',#601,#569,#748,.T.);
#475=EDGE_CURVE('',#602,#599,#749,.T.);
#476=EDGE_CURVE('',#600,#601,#750,.T.);
#477=EDGE_CURVE('',#604,#605,#751,.T.);
#478=EDGE_CURVE('',#606,#604,#752,.T.);
#479=EDGE_CURVE('',#606,#607,#753,.T.);
#480=EDGE_CURVE('',#607,#608,#754,.T.);
#481=EDGE_CURVE('',#608,#585,#755,.T.);
#482=EDGE_CURVE('',#609,#584,#756,.T.);
#483=EDGE_CURVE('',#609,#605,#757,.T.);
#484=EDGE_CURVE('',#609,#578,#758,.T.);
#485=EDGE_CURVE('',#608,#573,#759,.T.);
#486=EDGE_CURVE('',#607,#610,#760,.T.);
#487=EDGE_CURVE('',#611,#610,#761,.T.);
#488=EDGE_CURVE('',#605,#611,#762,.T.);
#489=EDGE_CURVE('',#612,#577,#763,.T.);
#490=EDGE_CURVE('',#612,#603,#764,.T.);
#491=EDGE_CURVE('',#598,#613,#765,.T.);
#492=EDGE_CURVE('',#613,#574,#766,.T.);
#493=EDGE_CURVE('',#589,#592,#767,.T.);
#494=EDGE_CURVE('',#588,#593,#768,.T.);
#495=EDGE_CURVE('',#604,#614,#769,.T.);
#496=EDGE_CURVE('',#614,#615,#770,.T.);
#497=EDGE_CURVE('',#606,#615,#771,.T.);
#498=EDGE_CURVE('',#615,#610,#772,.T.);
#499=EDGE_CURVE('',#614,#611,#773,.T.);
#500=EDGE_CURVE('',#616,#576,#774,.T.);
#501=EDGE_CURVE('',#616,#612,#775,.T.);
#502=EDGE_CURVE('',#617,#613,#776,.T.);
#503=EDGE_CURVE('',#617,#575,#777,.T.);
#504=EDGE_CURVE('',#616,#617,#778,.T.);
#505=EDGE_CURVE('',#586,#595,#779,.T.);
#506=EDGE_CURVE('',#587,#594,#780,.T.);
#507=EDGE_CURVE('',#590,#591,#781,.T.);
#508=EDGE_CURVE('',#581,#557,#782,.T.);
#509=EDGE_CURVE('',#571,#552,#783,.T.);
#510=VERTEX_POINT('',#1560);
#511=VERTEX_POINT('',#1561);
#512=VERTEX_POINT('',#1563);
#513=VERTEX_POINT('',#1565);
#514=VERTEX_POINT('',#1567);
#515=VERTEX_POINT('',#1569);
#516=VERTEX_POINT('',#1573);
#517=VERTEX_POINT('',#1574);
#518=VERTEX_POINT('',#1576);
#519=VERTEX_POINT('',#1578);
#520=VERTEX_POINT('',#1581);
#521=VERTEX_POINT('',#1582);
#522=VERTEX_POINT('',#1584);
#523=VERTEX_POINT('',#1586);
#524=VERTEX_POINT('',#1590);
#525=VERTEX_POINT('',#1591);
#526=VERTEX_POINT('',#1593);
#527=VERTEX_POINT('',#1595);
#528=VERTEX_POINT('',#1598);
#529=VERTEX_POINT('',#1600);
#530=VERTEX_POINT('',#1604);
#531=VERTEX_POINT('',#1605);
#532=VERTEX_POINT('',#1607);
#533=VERTEX_POINT('',#1609);
#534=VERTEX_POINT('',#1612);
#535=VERTEX_POINT('',#1617);
#536=VERTEX_POINT('',#1618);
#537=VERTEX_POINT('',#1620);
#538=VERTEX_POINT('',#1622);
#539=VERTEX_POINT('',#1625);
#540=VERTEX_POINT('',#1629);
#541=VERTEX_POINT('',#1630);
#542=VERTEX_POINT('',#1632);
#543=VERTEX_POINT('',#1634);
#544=VERTEX_POINT('',#1640);
#545=VERTEX_POINT('',#1641);
#546=VERTEX_POINT('',#1643);
#547=VERTEX_POINT('',#1645);
#548=VERTEX_POINT('',#1651);
#549=VERTEX_POINT('',#1652);
#550=VERTEX_POINT('',#1654);
#551=VERTEX_POINT('',#1656);
#552=VERTEX_POINT('',#1659);
#553=VERTEX_POINT('',#1663);
#554=VERTEX_POINT('',#1664);
#555=VERTEX_POINT('',#1666);
#556=VERTEX_POINT('',#1668);
#557=VERTEX_POINT('',#1671);
#558=VERTEX_POINT('',#1675);
#559=VERTEX_POINT('',#1676);
#560=VERTEX_POINT('',#1678);
#561=VERTEX_POINT('',#1680);
#562=VERTEX_POINT('',#1718);
#563=VERTEX_POINT('',#1720);
#564=VERTEX_POINT('',#1722);
#565=VERTEX_POINT('',#1724);
#566=VERTEX_POINT('',#1727);
#567=VERTEX_POINT('',#1728);
#568=VERTEX_POINT('',#1730);
#569=VERTEX_POINT('',#1732);
#570=VERTEX_POINT('',#1736);
#571=VERTEX_POINT('',#1737);
#572=VERTEX_POINT('',#1739);
#573=VERTEX_POINT('',#1741);
#574=VERTEX_POINT('',#1743);
#575=VERTEX_POINT('',#1745);
#576=VERTEX_POINT('',#1747);
#577=VERTEX_POINT('',#1749);
#578=VERTEX_POINT('',#1751);
#579=VERTEX_POINT('',#1753);
#580=VERTEX_POINT('',#1755);
#581=VERTEX_POINT('',#1757);
#582=VERTEX_POINT('',#1762);
#583=VERTEX_POINT('',#1764);
#584=VERTEX_POINT('',#1768);
#585=VERTEX_POINT('',#1770);
#586=VERTEX_POINT('',#1774);
#587=VERTEX_POINT('',#1776);
#588=VERTEX_POINT('',#1778);
#589=VERTEX_POINT('',#1780);
#590=VERTEX_POINT('',#1782);
#591=VERTEX_POINT('',#1786);
#592=VERTEX_POINT('',#1788);
#593=VERTEX_POINT('',#1790);
#594=VERTEX_POINT('',#1792);
#595=VERTEX_POINT('',#1794);
#596=VERTEX_POINT('',#1798);
#597=VERTEX_POINT('',#1799);
#598=VERTEX_POINT('',#1804);
#599=VERTEX_POINT('',#1805);
#600=VERTEX_POINT('',#1807);
#601=VERTEX_POINT('',#1812);
#602=VERTEX_POINT('',#1813);
#603=VERTEX_POINT('',#1815);
#604=VERTEX_POINT('',#1823);
#605=VERTEX_POINT('',#1824);
#606=VERTEX_POINT('',#1826);
#607=VERTEX_POINT('',#1828);
#608=VERTEX_POINT('',#1830);
#609=VERTEX_POINT('',#1833);
#610=VERTEX_POINT('',#1841);
#611=VERTEX_POINT('',#1843);
#612=VERTEX_POINT('',#1846);
#613=VERTEX_POINT('',#1849);
#614=VERTEX_POINT('',#1857);
#615=VERTEX_POINT('',#1859);
#616=VERTEX_POINT('',#1868);
#617=VERTEX_POINT('',#1872);
#618=LINE('',#1559,#784);
#619=LINE('',#1562,#785);
#620=LINE('',#1564,#786);
#621=LINE('',#1566,#787);
#622=LINE('',#1568,#788);
#623=LINE('',#1570,#789);
#624=LINE('',#1572,#790);
#625=LINE('',#1575,#791);
#626=LINE('',#1577,#792);
#627=LINE('',#1579,#793);
#628=LINE('',#1580,#794);
#629=LINE('',#1583,#795);
#630=LINE('',#1585,#796);
#631=LINE('',#1587,#797);
#632=LINE('',#1589,#798);
#633=LINE('',#1592,#799);
#634=LINE('',#1594,#800);
#635=LINE('',#1596,#801);
#636=LINE('',#1597,#802);
#637=LINE('',#1599,#803);
#638=LINE('',#1601,#804);
#639=LINE('',#1603,#805);
#640=LINE('',#1606,#806);
#641=LINE('',#1608,#807);
#642=LINE('',#1610,#808);
#643=LINE('',#1611,#809);
#644=LINE('',#1613,#810);
#645=LINE('',#1614,#811);
#646=LINE('',#1616,#812);
#647=LINE('',#1619,#813);
#648=LINE('',#1621,#814);
#649=LINE('',#1623,#815);
#650=LINE('',#1624,#816);
#651=LINE('',#1626,#817);
#652=LINE('',#1628,#818);
#653=LINE('',#1631,#819);
#654=LINE('',#1633,#820);
#655=LINE('',#1635,#821);
#656=LINE('',#1636,#822);
#657=LINE('',#1637,#823);
#658=LINE('',#1639,#824);
#659=LINE('',#1642,#825);
#660=LINE('',#1644,#826);
#661=LINE('',#1646,#827);
#662=LINE('',#1647,#828);
#663=LINE('',#1648,#829);
#664=LINE('',#1650,#830);
#665=LINE('',#1653,#831);
#666=LINE('',#1655,#832);
#667=LINE('',#1657,#833);
#668=LINE('',#1658,#834);
#669=LINE('',#1660,#835);
#670=LINE('',#1662,#836);
#671=LINE('',#1665,#837);
#672=LINE('',#1667,#838);
#673=LINE('',#1669,#839);
#674=LINE('',#1670,#840);
#675=LINE('',#1672,#841);
#676=LINE('',#1674,#842);
#677=LINE('',#1677,#843);
#678=LINE('',#1679,#844);
#679=LINE('',#1681,#845);
#680=LINE('',#1682,#846);
#681=LINE('',#1685,#847);
#682=LINE('',#1686,#848);
#683=LINE('',#1688,#849);
#684=LINE('',#1690,#850);
#685=LINE('',#1693,#851);
#686=LINE('',#1694,#852);
#687=LINE('',#1696,#853);
#688=LINE('',#1698,#854);
#689=LINE('',#1701,#855);
#690=LINE('',#1702,#856);
#691=LINE('',#1704,#857);
#692=LINE('',#1706,#858);
#693=LINE('',#1709,#859);
#694=LINE('',#1710,#860);
#695=LINE('',#1712,#861);
#696=LINE('',#1714,#862);
#697=LINE('',#1717,#863);
#698=LINE('',#1719,#864);
#699=LINE('',#1721,#865);
#700=LINE('',#1723,#866);
#701=LINE('',#1725,#867);
#702=LINE('',#1726,#868);
#703=LINE('',#1729,#869);
#704=LINE('',#1731,#870);
#705=LINE('',#1733,#871);
#706=LINE('',#1735,#872);
#707=LINE('',#1738,#873);
#708=LINE('',#1740,#874);
#709=LINE('',#1742,#875);
#710=LINE('',#1744,#876);
#711=LINE('',#1746,#877);
#712=LINE('',#1748,#878);
#713=LINE('',#1750,#879);
#714=LINE('',#1752,#880);
#715=LINE('',#1754,#881);
#716=LINE('',#1756,#882);
#717=LINE('',#1758,#883);
#718=LINE('',#1760,#884);
#719=LINE('',#1761,#885);
#720=LINE('',#1763,#886);
#721=LINE('',#1765,#887);
#722=LINE('',#1766,#888);
#723=LINE('',#1767,#889);
#724=LINE('',#1769,#890);
#725=LINE('',#1771,#891);
#726=LINE('',#1773,#892);
#727=LINE('',#1775,#893);
#728=LINE('',#1777,#894);
#729=LINE('',#1779,#895);
#730=LINE('',#1781,#896);
#731=LINE('',#1783,#897);
#732=LINE('',#1785,#898);
#733=LINE('',#1787,#899);
#734=LINE('',#1789,#900);
#735=LINE('',#1791,#901);
#736=LINE('',#1793,#902);
#737=LINE('',#1795,#903);
#738=LINE('',#1797,#904);
#739=LINE('',#1800,#905);
#740=LINE('',#1801,#906);
#741=LINE('',#1803,#907);
#742=LINE('',#1806,#908);
#743=LINE('',#1808,#909);
#744=LINE('',#1809,#910);
#745=LINE('',#1811,#911);
#746=LINE('',#1814,#912);
#747=LINE('',#1816,#913);
#748=LINE('',#1817,#914);
#749=LINE('',#1819,#915);
#750=LINE('',#1820,#916);
#751=LINE('',#1822,#917);
#752=LINE('',#1825,#918);
#753=LINE('',#1827,#919);
#754=LINE('',#1829,#920);
#755=LINE('',#1831,#921);
#756=LINE('',#1832,#922);
#757=LINE('',#1834,#923);
#758=LINE('',#1836,#924);
#759=LINE('',#1838,#925);
#760=LINE('',#1840,#926);
#761=LINE('',#1842,#927);
#762=LINE('',#1844,#928);
#763=LINE('',#1845,#929);
#764=LINE('',#1847,#930);
#765=LINE('',#1848,#931);
#766=LINE('',#1850,#932);
#767=LINE('',#1852,#933);
#768=LINE('',#1853,#934);
#769=LINE('',#1856,#935);
#770=LINE('',#1858,#936);
#771=LINE('',#1860,#937);
#772=LINE('',#1862,#938);
#773=LINE('',#1863,#939);
#774=LINE('',#1867,#940);
#775=LINE('',#1869,#941);
#776=LINE('',#1871,#942);
#777=LINE('',#1873,#943);
#778=LINE('',#1875,#944);
#779=LINE('',#1878,#945);
#780=LINE('',#1880,#946);
#781=LINE('',#1882,#947);
#782=LINE('',#1886,#948);
#783=LINE('',#1888,#949);
#784=VECTOR('',#1277,1.);
#785=VECTOR('',#1278,1.);
#786=VECTOR('',#1279,1.);
#787=VECTOR('',#1280,1.);
#788=VECTOR('',#1281,1.);
#789=VECTOR('',#1282,1.);
#790=VECTOR('',#1285,1.);
#791=VECTOR('',#1286,1.);
#792=VECTOR('',#1287,1.);
#793=VECTOR('',#1288,1.);
#794=VECTOR('',#1289,1.);
#795=VECTOR('',#1290,1.);
#796=VECTOR('',#1291,1.);
#797=VECTOR('',#1292,1.);
#798=VECTOR('',#1295,1.);
#799=VECTOR('',#1296,1.);
#800=VECTOR('',#1297,1.);
#801=VECTOR('',#1298,1.);
#802=VECTOR('',#1299,1.);
#803=VECTOR('',#1300,1.);
#804=VECTOR('',#1301,1.);
#805=VECTOR('',#1304,1.);
#806=VECTOR('',#1305,1.);
#807=VECTOR('',#1306,1.);
#808=VECTOR('',#1307,1.);
#809=VECTOR('',#1308,1.);
#810=VECTOR('',#1309,1.);
#811=VECTOR('',#1310,1.);
#812=VECTOR('',#1313,1.);
#813=VECTOR('',#1314,1.);
#814=VECTOR('',#1315,1.);
#815=VECTOR('',#1316,1.);
#816=VECTOR('',#1317,1.);
#817=VECTOR('',#1318,1.);
#818=VECTOR('',#1321,1.);
#819=VECTOR('',#1322,1.);
#820=VECTOR('',#1323,1.);
#821=VECTOR('',#1324,1.);
#822=VECTOR('',#1325,1.);
#823=VECTOR('',#1326,1.);
#824=VECTOR('',#1329,1.);
#825=VECTOR('',#1330,1.);
#826=VECTOR('',#1331,1.);
#827=VECTOR('',#1332,1.);
#828=VECTOR('',#1333,1.);
#829=VECTOR('',#1334,1.);
#830=VECTOR('',#1337,1.);
#831=VECTOR('',#1338,1.);
#832=VECTOR('',#1339,1.);
#833=VECTOR('',#1340,1.);
#834=VECTOR('',#1341,1.);
#835=VECTOR('',#1342,1.);
#836=VECTOR('',#1345,1.);
#837=VECTOR('',#1346,1.);
#838=VECTOR('',#1347,1.);
#839=VECTOR('',#1348,1.);
#840=VECTOR('',#1349,1.);
#841=VECTOR('',#1350,1.);
#842=VECTOR('',#1353,1.);
#843=VECTOR('',#1354,1.);
#844=VECTOR('',#1355,1.);
#845=VECTOR('',#1356,1.);
#846=VECTOR('',#1357,1.);
#847=VECTOR('',#1362,1.);
#848=VECTOR('',#1363,1.);
#849=VECTOR('',#1366,1.);
#850=VECTOR('',#1369,1.);
#851=VECTOR('',#1374,1.);
#852=VECTOR('',#1375,1.);
#853=VECTOR('',#1378,1.);
#854=VECTOR('',#1381,1.);
#855=VECTOR('',#1386,1.);
#856=VECTOR('',#1387,1.);
#857=VECTOR('',#1390,1.);
#858=VECTOR('',#1393,1.);
#859=VECTOR('',#1398,1.);
#860=VECTOR('',#1399,1.);
#861=VECTOR('',#1402,1.);
#862=VECTOR('',#1405,1.);
#863=VECTOR('',#1410,1.);
#864=VECTOR('',#1411,1.);
#865=VECTOR('',#1412,1.);
#866=VECTOR('',#1413,1.);
#867=VECTOR('',#1414,1.);
#868=VECTOR('',#1415,1.);
#869=VECTOR('',#1416,1.);
#870=VECTOR('',#1417,1.);
#871=VECTOR('',#1418,1.);
#872=VECTOR('',#1421,1.);
#873=VECTOR('',#1422,1.);
#874=VECTOR('',#1423,1.);
#875=VECTOR('',#1424,1.);
#876=VECTOR('',#1425,1.);
#877=VECTOR('',#1426,1.);
#878=VECTOR('',#1427,1.);
#879=VECTOR('',#1428,1.);
#880=VECTOR('',#1429,1.);
#881=VECTOR('',#1430,1.);
#882=VECTOR('',#1431,1.);
#883=VECTOR('',#1432,1.);
#884=VECTOR('',#1435,1.);
#885=VECTOR('',#1436,1.);
#886=VECTOR('',#1437,1.);
#887=VECTOR('',#1438,1.);
#888=VECTOR('',#1439,1.);
#889=VECTOR('',#1440,1.);
#890=VECTOR('',#1441,1.);
#891=VECTOR('',#1442,1.);
#892=VECTOR('',#1445,1.);
#893=VECTOR('',#1446,1.);
#894=VECTOR('',#1447,1.);
#895=VECTOR('',#1448,1.);
#896=VECTOR('',#1449,1.);
#897=VECTOR('',#1450,1.);
#898=VECTOR('',#1453,1.);
#899=VECTOR('',#1454,1.);
#900=VECTOR('',#1455,1.);
#901=VECTOR('',#1456,1.);
#902=VECTOR('',#1457,1.);
#903=VECTOR('',#1458,1.);
#904=VECTOR('',#1461,1.);
#905=VECTOR('',#1462,1.);
#906=VECTOR('',#1463,1.);
#907=VECTOR('',#1466,1.);
#908=VECTOR('',#1467,1.);
#909=VECTOR('',#1468,1.);
#910=VECTOR('',#1469,1.);
#911=VECTOR('',#1472,1.);
#912=VECTOR('',#1473,1.);
#913=VECTOR('',#1474,1.);
#914=VECTOR('',#1475,1.);
#915=VECTOR('',#1478,1.);
#916=VECTOR('',#1479,1.);
#917=VECTOR('',#1482,1.);
#918=VECTOR('',#1483,1.);
#919=VECTOR('',#1484,1.);
#920=VECTOR('',#1485,1.);
#921=VECTOR('',#1486,1.);
#922=VECTOR('',#1487,1.);
#923=VECTOR('',#1488,1.);
#924=VECTOR('',#1491,1.);
#925=VECTOR('',#1494,1.);
#926=VECTOR('',#1497,1.);
#927=VECTOR('',#1498,1.);
#928=VECTOR('',#1499,1.);
#929=VECTOR('',#1500,1.);
#930=VECTOR('',#1501,1.);
#931=VECTOR('',#1502,1.);
#932=VECTOR('',#1503,1.);
#933=VECTOR('',#1506,1.);
#934=VECTOR('',#1507,1.);
#935=VECTOR('',#1512,1.);
#936=VECTOR('',#1513,1.);
#937=VECTOR('',#1514,1.);
#938=VECTOR('',#1517,1.);
#939=VECTOR('',#1518,1.);
#940=VECTOR('',#1525,1.);
#941=VECTOR('',#1526,1.);
#942=VECTOR('',#1529,1.);
#943=VECTOR('',#1530,1.);
#944=VECTOR('',#1533,1.);
#945=VECTOR('',#1538,1.);
#946=VECTOR('',#1541,1.);
#947=VECTOR('',#1544,1.);
#948=VECTOR('',#1551,1.);
#949=VECTOR('',#1554,1.);
#950=EDGE_LOOP('',(#12,#13,#14,#15,#16,#17));
#951=EDGE_LOOP('',(#18,#19,#20,#21));
#952=EDGE_LOOP('',(#22,#23,#24,#25));
#953=EDGE_LOOP('',(#26,#27,#28,#29));
#954=EDGE_LOOP('',(#30,#31,#32,#33));
#955=EDGE_LOOP('',(#34,#35,#36,#37));
#956=EDGE_LOOP('',(#38,#39,#40,#41,#42,#43));
#957=EDGE_LOOP('',(#44,#45,#46,#47));
#958=EDGE_LOOP('',(#48,#49,#50,#51));
#959=EDGE_LOOP('',(#52,#53,#54,#55));
#960=EDGE_LOOP('',(#56,#57,#58,#59,#60,#61));
#961=EDGE_LOOP('',(#62,#63,#64,#65));
#962=EDGE_LOOP('',(#66,#67,#68,#69));
#963=EDGE_LOOP('',(#70,#71,#72,#73));
#964=EDGE_LOOP('',(#74,#75,#76,#77));
#965=EDGE_LOOP('',(#78,#79,#80,#81));
#966=EDGE_LOOP('',(#82,#83,#84,#85));
#967=EDGE_LOOP('',(#86,#87,#88,#89));
#968=EDGE_LOOP('',(#90,#91,#92,#93));
#969=EDGE_LOOP('',(#94,#95,#96,#97));
#970=EDGE_LOOP('',(#98,#99,#100,#101));
#971=EDGE_LOOP('',(#102,#103,#104,#105));
#972=EDGE_LOOP('',(#106,#107,#108,#109));
#973=EDGE_LOOP('',(#110,#111,#112,#113));
#974=EDGE_LOOP('',(#114,#115,#116,#117));
#975=EDGE_LOOP('',(#118,#119,#120,#121));
#976=EDGE_LOOP('',(#122,#123,#124,#125));
#977=EDGE_LOOP('',(#126,#127,#128,#129));
#978=EDGE_LOOP('',(#130,#131,#132,#133));
#979=EDGE_LOOP('',(#134,#135,#136,#137));
#980=EDGE_LOOP('',(#138,#139,#140,#141));
#981=EDGE_LOOP('',(#142,#143,#144,#145));
#982=EDGE_LOOP('',(#146,#147,#148,#149));
#983=EDGE_LOOP('',(#150,#151,#152,#153));
#984=EDGE_LOOP('',(#154,#155,#156,#157));
#985=EDGE_LOOP('',(#158,#159,#160,#161));
#986=EDGE_LOOP('',(#162,#163,#164,#165,#166,#167,#168,#169));
#987=EDGE_LOOP('',(#170,#171,#172,#173));
#988=EDGE_LOOP('',(#174,#175,#176,#177,#178,#179,#180,#181,#182,#183,#184,
#185));
#989=EDGE_LOOP('',(#186,#187,#188,#189,#190,#191,#192,#193,#194,#195,#196,
#197,#198,#199));
#990=EDGE_LOOP('',(#200,#201,#202,#203,#204,#205,#206,#207));
#991=EDGE_LOOP('',(#208,#209,#210,#211,#212,#213,#214,#215));
#992=EDGE_LOOP('',(#216,#217,#218,#219));
#993=EDGE_LOOP('',(#220,#221,#222,#223,#224,#225));
#994=EDGE_LOOP('',(#226,#227,#228,#229,#230,#231));
#995=EDGE_LOOP('',(#232,#233,#234,#235));
#996=EDGE_LOOP('',(#236,#237,#238,#239,#240,#241,#242,#243));
#997=EDGE_LOOP('',(#244,#245,#246,#247));
#998=EDGE_LOOP('',(#248,#249,#250,#251));
#999=EDGE_LOOP('',(#252,#253,#254,#255,#256,#257,#258,#259,#260,#261,#262,
#263,#264,#265,#266,#267));
#1000=EDGE_LOOP('',(#268,#269,#270,#271));
#1001=EDGE_LOOP('',(#272,#273,#274,#275));
#1002=EDGE_LOOP('',(#276,#277,#278,#279));
#1003=EDGE_LOOP('',(#280,#281,#282,#283));
#1004=EDGE_LOOP('',(#284,#285,#286,#287));
#1005=EDGE_LOOP('',(#288,#289,#290,#291));
#1006=EDGE_LOOP('',(#292,#293,#294,#295));
#1007=EDGE_LOOP('',(#296,#297,#298,#299));
#1008=EDGE_LOOP('',(#300,#301,#302,#303));
#1009=EDGE_LOOP('',(#304,#305,#306,#307,#308,#309,#310,#311));
#1010=EDGE_LOOP('',(#312,#313,#314,#315));
#1011=EDGE_LOOP('',(#316,#317,#318,#319));
#1012=EDGE_LOOP('',(#320,#321,#322,#323));
#1013=EDGE_LOOP('',(#324,#325,#326,#327));
#1014=EDGE_LOOP('',(#328,#329,#330,#331));
#1015=EDGE_LOOP('',(#332,#333,#334,#335));
#1016=EDGE_LOOP('',(#336,#337,#338,#339));
#1017=EDGE_LOOP('',(#340,#341,#342,#343));
#1018=FACE_BOUND('',#950,.T.);
#1019=FACE_BOUND('',#951,.T.);
#1020=FACE_BOUND('',#952,.T.);
#1021=FACE_BOUND('',#953,.T.);
#1022=FACE_BOUND('',#954,.T.);
#1023=FACE_BOUND('',#955,.T.);
#1024=FACE_BOUND('',#956,.T.);
#1025=FACE_BOUND('',#957,.T.);
#1026=FACE_BOUND('',#958,.T.);
#1027=FACE_BOUND('',#959,.T.);
#1028=FACE_BOUND('',#960,.T.);
#1029=FACE_BOUND('',#961,.T.);
#1030=FACE_BOUND('',#962,.T.);
#1031=FACE_BOUND('',#963,.T.);
#1032=FACE_BOUND('',#964,.T.);
#1033=FACE_BOUND('',#965,.T.);
#1034=FACE_BOUND('',#966,.T.);
#1035=FACE_BOUND('',#967,.T.);
#1036=FACE_BOUND('',#968,.T.);
#1037=FACE_BOUND('',#969,.T.);
#1038=FACE_BOUND('',#970,.T.);
#1039=FACE_BOUND('',#971,.T.);
#1040=FACE_BOUND('',#972,.T.);
#1041=FACE_BOUND('',#973,.T.);
#1042=FACE_BOUND('',#974,.T.);
#1043=FACE_BOUND('',#975,.T.);
#1044=FACE_BOUND('',#976,.T.);
#1045=FACE_BOUND('',#977,.T.);
#1046=FACE_BOUND('',#978,.T.);
#1047=FACE_BOUND('',#979,.T.);
#1048=FACE_BOUND('',#980,.T.);
#1049=FACE_BOUND('',#981,.T.);
#1050=FACE_BOUND('',#982,.T.);
#1051=FACE_BOUND('',#983,.T.);
#1052=FACE_BOUND('',#984,.T.);
#1053=FACE_BOUND('',#985,.T.);
#1054=FACE_BOUND('',#986,.T.);
#1055=FACE_BOUND('',#987,.T.);
#1056=FACE_BOUND('',#988,.T.);
#1057=FACE_BOUND('',#989,.T.);
#1058=FACE_BOUND('',#990,.T.);
#1059=FACE_BOUND('',#991,.T.);
#1060=FACE_BOUND('',#992,.T.);
#1061=FACE_BOUND('',#993,.T.);
#1062=FACE_BOUND('',#994,.T.);
#1063=FACE_BOUND('',#995,.T.);
#1064=FACE_BOUND('',#996,.T.);
#1065=FACE_BOUND('',#997,.T.);
#1066=FACE_BOUND('',#998,.T.);
#1067=FACE_BOUND('',#999,.T.);
#1068=FACE_BOUND('',#1000,.T.);
#1069=FACE_BOUND('',#1001,.T.);
#1070=FACE_BOUND('',#1002,.T.);
#1071=FACE_BOUND('',#1003,.T.);
#1072=FACE_BOUND('',#1004,.T.);
#1073=FACE_BOUND('',#1005,.T.);
#1074=FACE_BOUND('',#1006,.T.);
#1075=FACE_BOUND('',#1007,.T.);
#1076=FACE_BOUND('',#1008,.T.);
#1077=FACE_BOUND('',#1009,.T.);
#1078=FACE_BOUND('',#1010,.T.);
#1079=FACE_BOUND('',#1011,.T.);
#1080=FACE_BOUND('',#1012,.T.);
#1081=FACE_BOUND('',#1013,.T.);
#1082=FACE_BOUND('',#1014,.T.);
#1083=FACE_BOUND('',#1015,.T.);
#1084=FACE_BOUND('',#1016,.T.);
#1085=FACE_BOUND('',#1017,.T.);
#1086=PLANE('',#1215);
#1087=PLANE('',#1216);
#1088=PLANE('',#1217);
#1089=PLANE('',#1218);
#1090=PLANE('',#1219);
#1091=PLANE('',#1220);
#1092=PLANE('',#1221);
#1093=PLANE('',#1222);
#1094=PLANE('',#1223);
#1095=PLANE('',#1224);
#1096=PLANE('',#1225);
#1097=PLANE('',#1226);
#1098=PLANE('',#1227);
#1099=PLANE('',#1228);
#1100=PLANE('',#1229);
#1101=PLANE('',#1230);
#1102=PLANE('',#1231);
#1103=PLANE('',#1232);
#1104=PLANE('',#1233);
#1105=PLANE('',#1234);
#1106=PLANE('',#1235);
#1107=PLANE('',#1236);
#1108=PLANE('',#1237);
#1109=PLANE('',#1238);
#1110=PLANE('',#1239);
#1111=PLANE('',#1240);
#1112=PLANE('',#1241);
#1113=PLANE('',#1242);
#1114=PLANE('',#1243);
#1115=PLANE('',#1244);
#1116=PLANE('',#1245);
#1117=PLANE('',#1246);
#1118=PLANE('',#1247);
#1119=PLANE('',#1248);
#1120=PLANE('',#1249);
#1121=PLANE('',#1250);
#1122=PLANE('',#1251);
#1123=PLANE('',#1252);
#1124=PLANE('',#1253);
#1125=PLANE('',#1254);
#1126=PLANE('',#1255);
#1127=PLANE('',#1256);
#1128=PLANE('',#1257);
#1129=PLANE('',#1258);
#1130=PLANE('',#1259);
#1131=PLANE('',#1260);
#1132=PLANE('',#1261);
#1133=PLANE('',#1262);
#1134=PLANE('',#1263);
#1135=PLANE('',#1264);
#1136=PLANE('',#1265);
#1137=PLANE('',#1266);
#1138=PLANE('',#1267);
#1139=PLANE('',#1268);
#1140=PLANE('',#1269);
#1141=PLANE('',#1270);
#1142=PLANE('',#1271);
#1143=PLANE('',#1272);
#1144=ADVANCED_FACE('',(#1018),#1086,.T.);
#1145=ADVANCED_FACE('',(#1019,#1020),#1087,.T.);
#1146=ADVANCED_FACE('',(#1021,#1022),#1088,.F.);
#1147=ADVANCED_FACE('',(#1023,#1024),#1089,.F.);
#1148=ADVANCED_FACE('',(#1025,#1026),#1090,.T.);
#1149=ADVANCED_FACE('',(#1027,#1028),#1091,.T.);
#1150=ADVANCED_FACE('',(#1029,#1030),#1092,.T.);
#1151=ADVANCED_FACE('',(#1031,#1032),#1093,.T.);
#1152=ADVANCED_FACE('',(#1033,#1034),#1094,.F.);
#1153=ADVANCED_FACE('',(#1035,#1036),#1095,.F.);
#1154=ADVANCED_FACE('',(#1037),#1096,.T.);
#1155=ADVANCED_FACE('',(#1038),#1097,.T.);
#1156=ADVANCED_FACE('',(#1039),#1098,.F.);
#1157=ADVANCED_FACE('',(#1040),#1099,.F.);
#1158=ADVANCED_FACE('',(#1041),#1100,.F.);
#1159=ADVANCED_FACE('',(#1042),#1101,.F.);
#1160=ADVANCED_FACE('',(#1043),#1102,.F.);
#1161=ADVANCED_FACE('',(#1044),#1103,.F.);
#1162=ADVANCED_FACE('',(#1045),#1104,.T.);
#1163=ADVANCED_FACE('',(#1046),#1105,.F.);
#1164=ADVANCED_FACE('',(#1047),#1106,.F.);
#1165=ADVANCED_FACE('',(#1048),#1107,.T.);
#1166=ADVANCED_FACE('',(#1049),#1108,.F.);
#1167=ADVANCED_FACE('',(#1050),#1109,.F.);
#1168=ADVANCED_FACE('',(#1051),#1110,.F.);
#1169=ADVANCED_FACE('',(#1052),#1111,.T.);
#1170=ADVANCED_FACE('',(#1053),#1112,.T.);
#1171=ADVANCED_FACE('Face appearance 1',(#1054,#1055),#1113,.F.);
#1172=ADVANCED_FACE('',(#1056),#1114,.F.);
#1173=ADVANCED_FACE('',(#1057),#1115,.F.);
#1174=ADVANCED_FACE('Face appearance 2',(#1058),#1116,.F.);
#1175=ADVANCED_FACE('Face appearance 2',(#1059),#1117,.T.);
#1176=ADVANCED_FACE('',(#1060),#1118,.F.);
#1177=ADVANCED_FACE('',(#1061),#1119,.F.);
#1178=ADVANCED_FACE('',(#1062),#1120,.T.);
#1179=ADVANCED_FACE('',(#1063),#1121,.F.);
#1180=ADVANCED_FACE('',(#1064),#1122,.T.);
#1181=ADVANCED_FACE('',(#1065),#1123,.F.);
#1182=ADVANCED_FACE('',(#1066),#1124,.T.);
#1183=ADVANCED_FACE('',(#1067),#1125,.T.);
#1184=ADVANCED_FACE('',(#1068),#1126,.T.);
#1185=ADVANCED_FACE('',(#1069),#1127,.T.);
#1186=ADVANCED_FACE('',(#1070),#1128,.F.);
#1187=ADVANCED_FACE('',(#1071),#1129,.F.);
#1188=ADVANCED_FACE('',(#1072),#1130,.T.);
#1189=ADVANCED_FACE('',(#1073),#1131,.F.);
#1190=ADVANCED_FACE('',(#1074),#1132,.F.);
#1191=ADVANCED_FACE('',(#1075),#1133,.T.);
#1192=ADVANCED_FACE('',(#1076),#1134,.F.);
#1193=ADVANCED_FACE('',(#1077),#1135,.T.);
#1194=ADVANCED_FACE('Face appearance 2',(#1078),#1136,.F.);
#1195=ADVANCED_FACE('',(#1079),#1137,.T.);
#1196=ADVANCED_FACE('',(#1080),#1138,.F.);
#1197=ADVANCED_FACE('',(#1081),#1139,.F.);
#1198=ADVANCED_FACE('',(#1082),#1140,.T.);
#1199=ADVANCED_FACE('',(#1083),#1141,.F.);
#1200=ADVANCED_FACE('',(#1084),#1142,.F.);
#1201=ADVANCED_FACE('',(#1085),#1143,.T.);
#1202=CLOSED_SHELL('',(#1144,#1145,#1146,#1147,#1148,#1149,#1150,#1151,
#1152,#1153,#1154,#1155,#1156,#1157,#1158,#1159,#1160,#1161,#1162,#1163,
#1164,#1165,#1166,#1167,#1168,#1169,#1170,#1171,#1172,#1173,#1174,#1175,
#1176,#1177,#1178,#1179,#1180,#1181,#1182,#1183,#1184,#1185,#1186,#1187,
#1188,#1189,#1190,#1191,#1192,#1193,#1194,#1195,#1196,#1197,#1198,#1199,
#1200,#1201));
#1203=STYLED_ITEM('',(#1204),#1211);
#1204=PRESENTATION_STYLE_ASSIGNMENT((#1205));
#1205=SURFACE_STYLE_USAGE(.BOTH.,#1206);
#1206=SURFACE_SIDE_STYLE('',(#1207));
#1207=SURFACE_STYLE_FILL_AREA(#1208);
#1208=FILL_AREA_STYLE('',(#1209));
#1209=FILL_AREA_STYLE_COLOUR('',#1210);
#1210=COLOUR_RGB('',0.615686274509804,0.811764705882353,0.929411764705882);
#1211=MANIFOLD_SOLID_BREP('Part 2',#1202);
#1212=SHAPE_DEFINITION_REPRESENTATION(#1896,#1213);
#1213=SHAPE_REPRESENTATION('Part 2',(#1214),#1891);
#1214=AXIS2_PLACEMENT_3D('',#1557,#1273,#1274);
#1215=AXIS2_PLACEMENT_3D('',#1558,#1275,#1276);
#1216=AXIS2_PLACEMENT_3D('',#1571,#1283,#1284);
#1217=AXIS2_PLACEMENT_3D('',#1588,#1293,#1294);
#1218=AXIS2_PLACEMENT_3D('',#1602,#1302,#1303);
#1219=AXIS2_PLACEMENT_3D('',#1615,#1311,#1312);
#1220=AXIS2_PLACEMENT_3D('',#1627,#1319,#1320);
#1221=AXIS2_PLACEMENT_3D('',#1638,#1327,#1328);
#1222=AXIS2_PLACEMENT_3D('',#1649,#1335,#1336);
#1223=AXIS2_PLACEMENT_3D('',#1661,#1343,#1344);
#1224=AXIS2_PLACEMENT_3D('',#1673,#1351,#1352);
#1225=AXIS2_PLACEMENT_3D('',#1683,#1358,#1359);
#1226=AXIS2_PLACEMENT_3D('',#1684,#1360,#1361);
#1227=AXIS2_PLACEMENT_3D('',#1687,#1364,#1365);
#1228=AXIS2_PLACEMENT_3D('',#1689,#1367,#1368);
#1229=AXIS2_PLACEMENT_3D('',#1691,#1370,#1371);
#1230=AXIS2_PLACEMENT_3D('',#1692,#1372,#1373);
#1231=AXIS2_PLACEMENT_3D('',#1695,#1376,#1377);
#1232=AXIS2_PLACEMENT_3D('',#1697,#1379,#1380);
#1233=AXIS2_PLACEMENT_3D('',#1699,#1382,#1383);
#1234=AXIS2_PLACEMENT_3D('',#1700,#1384,#1385);
#1235=AXIS2_PLACEMENT_3D('',#1703,#1388,#1389);
#1236=AXIS2_PLACEMENT_3D('',#1705,#1391,#1392);
#1237=AXIS2_PLACEMENT_3D('',#1707,#1394,#1395);
#1238=AXIS2_PLACEMENT_3D('',#1708,#1396,#1397);
#1239=AXIS2_PLACEMENT_3D('',#1711,#1400,#1401);
#1240=AXIS2_PLACEMENT_3D('',#1713,#1403,#1404);
#1241=AXIS2_PLACEMENT_3D('',#1715,#1406,#1407);
#1242=AXIS2_PLACEMENT_3D('',#1716,#1408,#1409);
#1243=AXIS2_PLACEMENT_3D('',#1734,#1419,#1420);
#1244=AXIS2_PLACEMENT_3D('',#1759,#1433,#1434);
#1245=AXIS2_PLACEMENT_3D('',#1772,#1443,#1444);
#1246=AXIS2_PLACEMENT_3D('',#1784,#1451,#1452);
#1247=AXIS2_PLACEMENT_3D('',#1796,#1459,#1460);
#1248=AXIS2_PLACEMENT_3D('',#1802,#1464,#1465);
#1249=AXIS2_PLACEMENT_3D('',#1810,#1470,#1471);
#1250=AXIS2_PLACEMENT_3D('',#1818,#1476,#1477);
#1251=AXIS2_PLACEMENT_3D('',#1821,#1480,#1481);
#1252=AXIS2_PLACEMENT_3D('',#1835,#1489,#1490);
#1253=AXIS2_PLACEMENT_3D('',#1837,#1492,#1493);
#1254=AXIS2_PLACEMENT_3D('',#1839,#1495,#1496);
#1255=AXIS2_PLACEMENT_3D('',#1851,#1504,#1505);
#1256=AXIS2_PLACEMENT_3D('',#1854,#1508,#1509);
#1257=AXIS2_PLACEMENT_3D('',#1855,#1510,#1511);
#1258=AXIS2_PLACEMENT_3D('',#1861,#1515,#1516);
#1259=AXIS2_PLACEMENT_3D('',#1864,#1519,#1520);
#1260=AXIS2_PLACEMENT_3D('',#1865,#1521,#1522);
#1261=AXIS2_PLACEMENT_3D('',#1866,#1523,#1524);
#1262=AXIS2_PLACEMENT_3D('',#1870,#1527,#1528);
#1263=AXIS2_PLACEMENT_3D('',#1874,#1531,#1532);
#1264=AXIS2_PLACEMENT_3D('',#1876,#1534,#1535);
#1265=AXIS2_PLACEMENT_3D('',#1877,#1536,#1537);
#1266=AXIS2_PLACEMENT_3D('',#1879,#1539,#1540);
#1267=AXIS2_PLACEMENT_3D('',#1881,#1542,#1543);
#1268=AXIS2_PLACEMENT_3D('',#1883,#1545,#1546);
#1269=AXIS2_PLACEMENT_3D('',#1884,#1547,#1548);
#1270=AXIS2_PLACEMENT_3D('',#1885,#1549,#1550);
#1271=AXIS2_PLACEMENT_3D('',#1887,#1552,#1553);
#1272=AXIS2_PLACEMENT_3D('',#1889,#1555,#1556);
#1273=DIRECTION('',(0.,0.,1.));
#1274=DIRECTION('',(1.,0.,0.));
#1275=DIRECTION('',(0.,-1.,0.));
#1276=DIRECTION('',(1.,0.,0.));
#1277=DIRECTION('',(-1.,0.,0.));
#1278=DIRECTION('',(0.,0.,-1.));
#1279=DIRECTION('',(-1.,0.,0.));
#1280=DIRECTION('',(0.,0.,-1.));
#1281=DIRECTION('',(-1.,0.,0.));
#1282=DIRECTION('',(-1.,0.,0.));
#1283=DIRECTION('',(0.,1.,0.));
#1284=DIRECTION('',(-1.,0.,0.));
#1285=DIRECTION('',(0.,0.,-1.));
#1286=DIRECTION('',(-1.,0.,0.));
#1287=DIRECTION('',(0.,0.,-1.));
#1288=DIRECTION('',(-1.,0.,0.));
#1289=DIRECTION('',(0.,0.,-1.));
#1290=DIRECTION('',(-1.,0.,0.));
#1291=DIRECTION('',(0.,0.,-1.));
#1292=DIRECTION('',(-1.,0.,1.83697019872103E-16));
#1293=DIRECTION('',(0.,-0.0589524091128943,-0.99826079431168));
#1294=DIRECTION('',(0.,0.99826079431168,-0.0589524091128943));
#1295=DIRECTION('',(-0.0588502341544312,-0.996530631681705,0.0588502341544312));
#1296=DIRECTION('',(1.,0.,0.));
#1297=DIRECTION('',(-0.0588502341544312,0.996530631681705,-0.0588502341544312));
#1298=DIRECTION('',(1.,0.,0.));
#1299=DIRECTION('',(0.0588502341544312,0.996530631681705,-0.0588502341544312));
#1300=DIRECTION('',(-1.,0.,0.));
#1301=DIRECTION('',(0.0588502341544312,-0.996530631681705,0.0588502341544312));
#1302=DIRECTION('',(0.99826079431168,-0.0589524091128943,0.));
#1303=DIRECTION('',(0.0589524091128943,0.99826079431168,0.));
#1304=DIRECTION('',(0.,0.,1.));
#1305=DIRECTION('',(0.0588502341544312,0.996530631681705,0.0588502341544311));
#1306=DIRECTION('',(0.,0.,1.));
#1307=DIRECTION('',(0.0588502341544312,0.996530631681705,-0.0588502341544312));
#1308=DIRECTION('',(0.,0.,-1.));
#1309=DIRECTION('',(-0.0429319052343318,-0.72698026196802,-0.685314927768146));
#1310=DIRECTION('',(-0.0588502341544312,-0.996530631681705,-0.0588502341544312));
#1311=DIRECTION('',(0.,0.0589524091128943,-0.99826079431168));
#1312=DIRECTION('',(0.,0.99826079431168,0.0589524091128943));
#1313=DIRECTION('',(0.0584425815443872,0.996554538611788,0.0588516459810109));
#1314=DIRECTION('',(-1.,0.,0.));
#1315=DIRECTION('',(0.0584425815443872,-0.996554538611788,-0.0588516459810109));
#1316=DIRECTION('',(-1.,0.,0.));
#1317=DIRECTION('',(-0.0588502341544312,0.996530631681705,0.0588502341544312));
#1318=DIRECTION('',(-1.,0.,0.));
#1319=DIRECTION('',(0.99826079431168,0.0589524091128943,0.));
#1320=DIRECTION('',(-0.0589524091128943,0.99826079431168,0.));
#1321=DIRECTION('',(-0.0588502341544312,0.996530631681705,0.0588502341544311));
#1322=DIRECTION('',(0.,0.,-1.));
#1323=DIRECTION('',(-0.0588502341544312,0.996530631681705,-0.0588502341544314));
#1324=DIRECTION('',(0.,0.,1.));
#1325=DIRECTION('',(0.0429319052343318,-0.72698026196802,-0.685314927768146));
#1326=DIRECTION('',(0.,0.,-1.));
#1327=DIRECTION('',(0.,-0.0589524091128943,-0.99826079431168));
#1328=DIRECTION('',(0.,0.99826079431168,-0.0589524091128943));
#1329=DIRECTION('',(-1.,0.,0.));
#1330=DIRECTION('',(0.0588502341544312,0.996530631681705,-0.0588502341544312));
#1331=DIRECTION('',(-1.,0.,0.));
#1332=DIRECTION('',(0.0588502341544312,-0.996530631681705,0.0588502341544312));
#1333=DIRECTION('',(-0.0588502341544312,0.996530631681705,-0.0588502341544312));
#1334=DIRECTION('',(0.0588502341544312,0.996530631681705,-0.0588502341544312));
#1335=DIRECTION('',(0.99826079431168,-0.0589524091128943,0.));
#1336=DIRECTION('',(0.0589524091128943,0.99826079431168,0.));
#1337=DIRECTION('',(-0.0588502341544312,-0.996530631681705,-0.0588502341544311));
#1338=DIRECTION('',(0.,0.,-1.));
#1339=DIRECTION('',(-0.0588502341544312,-0.996530631681705,0.0588502341544312));
#1340=DIRECTION('',(0.,0.,-1.));
#1341=DIRECTION('',(0.,0.,-1.));
#1342=DIRECTION('',(0.0588502341544312,0.996530631681705,0.0588502341544312));
#1343=DIRECTION('',(0.,0.0589524091128943,-0.99826079431168));
#1344=DIRECTION('',(0.,0.99826079431168,0.0589524091128943));
#1345=DIRECTION('',(-1.,0.,0.));
#1346=DIRECTION('',(0.0584425815443872,0.996554538611788,0.0588516459810109));
#1347=DIRECTION('',(-1.,0.,0.));
#1348=DIRECTION('',(0.0584425815443872,-0.996554538611788,-0.0588516459810109));
#1349=DIRECTION('',(-1.,0.,0.));
#1350=DIRECTION('',(-0.0588502341544312,0.996530631681705,0.0588502341544312));
#1351=DIRECTION('',(0.99826079431168,0.0589524091128943,0.));
#1352=DIRECTION('',(-0.0589524091128943,0.99826079431168,0.));
#1353=DIRECTION('',(0.,0.,-1.));
#1354=DIRECTION('',(-0.0588502341544312,0.996530631681705,0.0588502341544311));
#1355=DIRECTION('',(0.,0.,1.));
#1356=DIRECTION('',(-0.0588502341544312,0.996530631681705,-0.0588502341544314));
#1357=DIRECTION('',(0.,0.,-1.));
#1358=DIRECTION('',(0.,-0.685947370753436,0.727651155813312));
#1359=DIRECTION('',(-1.,0.,0.));
#1360=DIRECTION('',(0.,-0.99826079431168,0.0589524091128943));
#1361=DIRECTION('',(0.,-0.0589524091128943,-0.99826079431168));
#1362=DIRECTION('',(0.,0.0589524091128943,0.99826079431168));
#1363=DIRECTION('',(0.,0.0589524091128943,0.99826079431168));
#1364=DIRECTION('',(0.99826682301876,0.0587478814924308,-0.00346936308026165));
#1365=DIRECTION('',(-0.0587482350544782,0.998272830882411,0.));
#1366=DIRECTION('',(0.,0.0589524091128943,0.99826079431168));
#1367=DIRECTION('',(0.,-0.99826079431168,0.0589524091128943));
#1368=DIRECTION('',(0.,-0.0589524091128943,-0.99826079431168));
#1369=DIRECTION('',(0.,0.0589524091128943,0.99826079431168));
#1370=DIRECTION('',(-0.99826682301876,0.0587478814924308,-0.00346936308026165));
#1371=DIRECTION('',(-0.0587482350544782,-0.998272830882411,0.));
#1372=DIRECTION('',(-0.99826682301876,0.0587478814924308,-0.00346936308026165));
#1373=DIRECTION('',(-0.0587482350544782,-0.998272830882411,0.));
#1374=DIRECTION('',(0.,0.0589524091128943,0.99826079431168));
#1375=DIRECTION('',(0.,0.0589524091128943,0.99826079431168));
#1376=DIRECTION('',(0.,-0.99826079431168,0.0589524091128943));
#1377=DIRECTION('',(0.,-0.0589524091128943,-0.99826079431168));
#1378=DIRECTION('',(0.,0.0589524091128943,0.99826079431168));
#1379=DIRECTION('',(0.99826682301876,0.0587478814924308,-0.00346936308026165));
#1380=DIRECTION('',(-0.0587482350544782,0.998272830882411,0.));
#1381=DIRECTION('',(0.,0.0589524091128943,0.99826079431168));
#1382=DIRECTION('',(0.,-0.99826079431168,0.0589524091128943));
#1383=DIRECTION('',(0.,-0.0589524091128943,-0.99826079431168));
#1384=DIRECTION('',(-0.00346936308026165,0.0587478814924307,-0.99826682301876));
#1385=DIRECTION('',(0.,0.998272830882411,0.0587482350544781));
#1386=DIRECTION('',(0.99826079431168,0.0589524091128943,0.));
#1387=DIRECTION('',(0.99826079431168,0.0589524091128943,0.));
#1388=DIRECTION('',(-0.0589524091128943,0.99826079431168,0.));
#1389=DIRECTION('',(-0.99826079431168,-0.0589524091128943,0.));
#1390=DIRECTION('',(0.99826079431168,0.0589524091128943,0.));
#1391=DIRECTION('',(0.00346936308026166,-0.058747881492431,-0.99826682301876));
#1392=DIRECTION('',(0.,0.998272830882411,-0.0587482350544784));
#1393=DIRECTION('',(0.99826079431168,0.0589524091128943,0.));
#1394=DIRECTION('',(0.0589524091128943,-0.99826079431168,0.));
#1395=DIRECTION('',(0.99826079431168,0.0589524091128943,0.));
#1396=DIRECTION('',(-0.0589524091128943,-0.99826079431168,0.));
#1397=DIRECTION('',(0.99826079431168,-0.0589524091128943,0.));
#1398=DIRECTION('',(-0.99826079431168,0.0589524091128943,0.));
#1399=DIRECTION('',(-0.99826079431168,0.0589524091128943,0.));
#1400=DIRECTION('',(0.00346936308026166,0.0587478814924309,0.99826682301876));
#1401=DIRECTION('',(0.,-0.998272830882411,0.0587482350544783));
#1402=DIRECTION('',(-0.99826079431168,0.0589524091128943,0.));
#1403=DIRECTION('',(-0.0589524091128943,-0.99826079431168,0.));
#1404=DIRECTION('',(0.99826079431168,-0.0589524091128943,0.));
#1405=DIRECTION('',(-0.99826079431168,0.0589524091128943,0.));
#1406=DIRECTION('',(-0.00346936308026165,-0.0587478814924308,0.99826682301876));
#1407=DIRECTION('',(0.,-0.998272830882411,-0.0587482350544782));
#1408=DIRECTION('',(0.,-1.,0.));
#1409=DIRECTION('',(1.,0.,0.));
#1410=DIRECTION('',(-1.,0.,0.));
#1411=DIRECTION('',(0.,0.,1.));
#1412=DIRECTION('',(1.,0.,0.));
#1413=DIRECTION('',(0.,0.,1.));
#1414=DIRECTION('',(-1.,0.,0.));
#1415=DIRECTION('',(1.,0.,0.));
#1416=DIRECTION('',(0.,0.,1.));
#1417=DIRECTION('',(1.,0.,0.));
#1418=DIRECTION('',(0.,0.,1.));
#1419=DIRECTION('',(0.,1.,0.));
#1420=DIRECTION('',(0.,0.,1.));
#1421=DIRECTION('',(0.,0.,-1.));
#1422=DIRECTION('',(-1.,0.,0.));
#1423=DIRECTION('',(0.,0.,1.));
#1424=DIRECTION('',(-1.,0.,0.));
#1425=DIRECTION('',(0.,0.,-1.));
#1426=DIRECTION('',(1.,0.,0.));
#1427=DIRECTION('',(0.,0.,-1.));
#1428=DIRECTION('',(-1.,0.,0.));
#1429=DIRECTION('',(0.,0.,1.));
#1430=DIRECTION('',(-1.,0.,0.));
#1431=DIRECTION('',(0.,0.,-1.));
#1432=DIRECTION('',(-1.,0.,0.));
#1433=DIRECTION('',(0.,0.,-1.));
#1434=DIRECTION('',(-1.,0.,0.));
#1435=DIRECTION('',(0.,1.,0.));
#1436=DIRECTION('',(0.,1.,0.));
#1437=DIRECTION('',(-1.,-1.09561482693272E-16,0.));
#1438=DIRECTION('',(0.,1.,0.));
#1439=DIRECTION('',(0.,1.,0.));
#1440=DIRECTION('',(0.,1.,0.));
#1441=DIRECTION('',(-1.,0.,0.));
#1442=DIRECTION('',(0.,1.,0.));
#1443=DIRECTION('',(-1.,0.,0.));
#1444=DIRECTION('',(0.,0.,1.));
#1445=DIRECTION('',(0.,0.,1.));
#1446=DIRECTION('',(0.,1.,0.));
#1447=DIRECTION('',(0.,0.,1.));
#1448=DIRECTION('',(0.,1.,0.));
#1449=DIRECTION('',(0.,0.,1.));
#1450=DIRECTION('',(0.,1.,0.));
#1451=DIRECTION('',(-1.,0.,0.));
#1452=DIRECTION('',(0.,0.,1.));
#1453=DIRECTION('',(0.,1.,0.));
#1454=DIRECTION('',(0.,0.,1.));
#1455=DIRECTION('',(0.,1.,0.));
#1456=DIRECTION('',(0.,0.,1.));
#1457=DIRECTION('',(0.,1.,0.));
#1458=DIRECTION('',(0.,0.,1.));
#1459=DIRECTION('',(0.,0.,1.));
#1460=DIRECTION('',(1.,0.,0.));
#1461=DIRECTION('',(1.,1.85863229568943E-16,0.));
#1462=DIRECTION('',(0.,1.,0.));
#1463=DIRECTION('',(0.,1.,0.));
#1464=DIRECTION('',(-1.,0.,0.));
#1465=DIRECTION('',(0.,0.,1.));
#1466=DIRECTION('',(0.,-1.,0.));
#1467=DIRECTION('',(0.,0.,1.));
#1468=DIRECTION('',(0.,1.,0.));
#1469=DIRECTION('',(0.,0.,1.));
#1470=DIRECTION('',(-1.,0.,0.));
#1471=DIRECTION('',(0.,0.,1.));
#1472=DIRECTION('',(0.,0.,1.));
#1473=DIRECTION('',(0.,-1.,0.));
#1474=DIRECTION('',(0.,0.,1.));
#1475=DIRECTION('',(0.,1.,0.));
#1476=DIRECTION('',(0.,-1.,0.));
#1477=DIRECTION('',(1.,0.,0.));
#1478=DIRECTION('',(-1.,0.,0.));
#1479=DIRECTION('',(1.,0.,0.));
#1480=DIRECTION('',(0.,1.,0.));
#1481=DIRECTION('',(0.,0.,1.));
#1482=DIRECTION('',(0.,0.,-1.));
#1483=DIRECTION('',(1.,0.,0.));
#1484=DIRECTION('',(0.,0.,-1.));
#1485=DIRECTION('',(-1.,0.,0.));
#1486=DIRECTION('',(0.,0.,1.));
#1487=DIRECTION('',(0.,0.,1.));
#1488=DIRECTION('',(-1.,0.,0.));
#1489=DIRECTION('',(1.,0.,0.));
#1490=DIRECTION('',(0.,0.,-1.));
#1491=DIRECTION('',(0.,1.,0.));
#1492=DIRECTION('',(1.,0.,0.));
#1493=DIRECTION('',(0.,0.,-1.));
#1494=DIRECTION('',(0.,1.,0.));
#1495=DIRECTION('',(0.,0.,1.));
#1496=DIRECTION('',(1.,0.,0.));
#1497=DIRECTION('',(6.93889390390721E-16,-1.,0.));
#1498=DIRECTION('',(-1.,-1.80231010491097E-16,0.));
#1499=DIRECTION('',(1.38777878078144E-15,-1.,0.));
#1500=DIRECTION('',(1.38777878078144E-15,-1.,0.));
#1501=DIRECTION('',(-1.,-1.85863229568943E-16,0.));
#1502=DIRECTION('',(-1.,-1.85863229568943E-16,0.));
#1503=DIRECTION('',(6.93889390390721E-16,-1.,0.));
#1504=DIRECTION('',(7.30409884621814E-17,0.,-1.));
#1505=DIRECTION('',(-1.,0.,-7.30409884621814E-17));
#1506=DIRECTION('',(-1.,0.,-7.30409884621814E-17));
#1507=DIRECTION('',(-1.,0.,-7.30409884621814E-17));
#1508=DIRECTION('',(0.,0.,1.));
#1509=DIRECTION('',(1.,0.,0.));
#1510=DIRECTION('',(0.,0.,1.));
#1511=DIRECTION('',(1.,0.,0.));
#1512=DIRECTION('',(1.38777878078144E-15,-1.,0.));
#1513=DIRECTION('',(-1.,-1.80231010491097E-16,0.));
#1514=DIRECTION('',(6.93889390390721E-16,-1.,0.));
#1515=DIRECTION('',(1.80231010491097E-16,-1.,0.));
#1516=DIRECTION('',(1.,1.80231010491097E-16,0.));
#1517=DIRECTION('',(0.,0.,-1.));
#1518=DIRECTION('',(0.,0.,-1.));
#1519=DIRECTION('',(1.,6.93889390390721E-16,0.));
#1520=DIRECTION('',(-6.93889390390721E-16,1.,0.));
#1521=DIRECTION('',(1.,1.38777878078144E-15,0.));
#1522=DIRECTION('',(-1.38777878078144E-15,1.,0.));
#1523=DIRECTION('',(1.,1.38777878078144E-15,0.));
#1524=DIRECTION('',(-1.38777878078144E-15,1.,0.));
#1525=DIRECTION('',(1.38777878078144E-15,-1.,0.));
#1526=DIRECTION('',(0.,0.,-1.));
#1527=DIRECTION('',(1.,6.93889390390721E-16,0.));
#1528=DIRECTION('',(-6.93889390390721E-16,1.,0.));
#1529=DIRECTION('',(0.,0.,-1.));
#1530=DIRECTION('',(6.93889390390721E-16,-1.,0.));
#1531=DIRECTION('',(0.,0.,1.));
#1532=DIRECTION('',(1.,0.,0.));
#1533=DIRECTION('',(-1.,-1.85863229568943E-16,0.));
#1534=DIRECTION('',(1.85863229568943E-16,-1.,0.));
#1535=DIRECTION('',(1.,1.85863229568943E-16,0.));
#1536=DIRECTION('',(-1.09561482693272E-16,1.,0.));
#1537=DIRECTION('',(-1.,-1.09561482693272E-16,0.));
#1538=DIRECTION('',(-1.,-1.09561482693272E-16,0.));
#1539=DIRECTION('',(0.,0.,1.));
#1540=DIRECTION('',(1.,0.,0.));
#1541=DIRECTION('',(-1.,0.,0.));
#1542=DIRECTION('',(0.,-1.,0.));
#1543=DIRECTION('',(1.,0.,0.));
#1544=DIRECTION('',(-1.,0.,0.));
#1545=DIRECTION('',(0.,0.,-1.));
#1546=DIRECTION('',(-1.,0.,0.));
#1547=DIRECTION('',(0.,-1.,0.));
#1548=DIRECTION('',(1.,0.,0.));
#1549=DIRECTION('',(1.,0.,0.));
#1550=DIRECTION('',(0.,0.,-1.));
#1551=DIRECTION('',(0.,1.,0.));
#1552=DIRECTION('',(0.,0.,-1.));
#1553=DIRECTION('',(-1.,0.,0.));
#1554=DIRECTION('',(0.,1.,0.));
#1555=DIRECTION('',(1.,0.,0.));
#1556=DIRECTION('',(0.,0.,-1.));
#1557=CARTESIAN_POINT('',(0.,0.,0.));
#1558=CARTESIAN_POINT('',(0.0155,0.0039,0.0335));
#1559=CARTESIAN_POINT('',(0.,0.0039,0.0335));
#1560=CARTESIAN_POINT('',(0.0165017422357948,0.0039,0.0335));
#1561=CARTESIAN_POINT('',(0.0155,0.0039,0.0335));
#1562=CARTESIAN_POINT('',(0.0165017422357948,0.0039,0.));
#1563=CARTESIAN_POINT('',(0.0165017422357948,0.0039,0.0335017422357947));
#1564=CARTESIAN_POINT('',(0.0155,0.0039,0.0335017422357947));
#1565=CARTESIAN_POINT('',(-0.0165017422357948,0.0039,0.0335017422357947));
#1566=CARTESIAN_POINT('',(-0.0165017422357948,0.0039,0.));
#1567=CARTESIAN_POINT('',(-0.0165017422357948,0.0039,0.0335));
#1568=CARTESIAN_POINT('',(0.,0.0039,0.0335));
#1569=CARTESIAN_POINT('',(-0.0155,0.0039,0.0335));
#1570=CARTESIAN_POINT('',(0.,0.0039,0.0335));
#1571=CARTESIAN_POINT('',(0.014,0.0293,0.025));
#1572=CARTESIAN_POINT('',(-0.0150017422357948,0.0293,0.025));
#1573=CARTESIAN_POINT('',(-0.0150017422357948,0.0293,0.0239982577642052));
#1574=CARTESIAN_POINT('',(-0.0150017422357948,0.0293,0.0330017422357948));
#1575=CARTESIAN_POINT('',(0.014,0.0293,0.0330017422357948));
#1576=CARTESIAN_POINT('',(0.0150017422357948,0.0293,0.0330017422357948));
#1577=CARTESIAN_POINT('',(0.0150017422357948,0.0293,0.025));
#1578=CARTESIAN_POINT('',(0.0150017422357948,0.0293,0.0239982577642052));
#1579=CARTESIAN_POINT('',(0.014,0.0293,0.0239982577642052));
#1580=CARTESIAN_POINT('',(-0.014,0.0293,0.0285));
#1581=CARTESIAN_POINT('',(-0.014,0.0293,0.025));
#1582=CARTESIAN_POINT('',(-0.014,0.0293,0.032));
#1583=CARTESIAN_POINT('',(0.,0.0293,0.025));
#1584=CARTESIAN_POINT('',(0.014,0.0293,0.025));
#1585=CARTESIAN_POINT('',(0.014,0.0293,0.0285));
#1586=CARTESIAN_POINT('',(0.014,0.0293,0.032));
#1587=CARTESIAN_POINT('',(-2.75545529808154E-19,0.0293,0.032));
#1588=CARTESIAN_POINT('',(0.,0.00204397735466517,0.0346113498723303));
#1589=CARTESIAN_POINT('',(-0.0137187936590402,0.0170991303971559,0.0337222660312382));
#1590=CARTESIAN_POINT('',(-0.0131161746818225,0.0273034784113767,0.0331196470540205));
#1591=CARTESIAN_POINT('',(-0.014321412636258,0.00689478238293504,0.034324885008456));
#1592=CARTESIAN_POINT('',(-1.7347234759768E-18,0.0273034784113767,0.0331196470540205));
#1593=CARTESIAN_POINT('',(0.0131161746818225,0.0273034784113767,0.0331196470540205));
#1594=CARTESIAN_POINT('',(0.0137187936590402,0.0170991303971559,0.0337222660312382));
#1595=CARTESIAN_POINT('',(0.014321412636258,0.00689478238293504,0.034324885008456));
#1596=CARTESIAN_POINT('',(0.,0.00689478238293504,0.034324885008456));
#1597=CARTESIAN_POINT('',(-0.0165538189527527,0.0030181675928448,0.0345538189527527));
#1598=CARTESIAN_POINT('',(-0.0164427898266819,0.00489826079431168,0.0344427898266818));
#1599=CARTESIAN_POINT('',(0.,0.00489826079431168,0.0344427898266818));
#1600=CARTESIAN_POINT('',(0.0164427898266819,0.00489826079431168,0.0344427898266818));
#1601=CARTESIAN_POINT('',(0.0165538189527527,0.0030181675928448,0.0345538189527527));
#1602=CARTESIAN_POINT('',(-0.0166739068300541,0.000984679537207916,0.));
#1603=CARTESIAN_POINT('',(-0.0163838374175689,0.00589652158862336,0.0285));
#1604=CARTESIAN_POINT('',(-0.0163838374175689,0.00589652158862336,0.0246196349546291));
#1605=CARTESIAN_POINT('',(-0.0163838374175689,0.00589652158862336,0.0323803650453709));
#1606=CARTESIAN_POINT('',(-0.0157517422357948,0.0166,0.0252517301364033));
#1607=CARTESIAN_POINT('',(-0.0151196470540206,0.0273034784113767,0.0258838253181775));
#1608=CARTESIAN_POINT('',(-0.0151196470540206,0.0273034784113767,0.0285));
#1609=CARTESIAN_POINT('',(-0.0151196470540206,0.0273034784113767,0.0311161746818225));
#1610=CARTESIAN_POINT('',(-0.0157517422357948,0.0166,0.0317482698635967));
#1611=CARTESIAN_POINT('',(-0.0165017422357948,0.0039,0.));
#1612=CARTESIAN_POINT('',(-0.0165017422357948,0.0039,0.0224982577642052));
#1613=CARTESIAN_POINT('',(-0.0175787326908982,-0.0143370383730856,0.0163099210967693));
#1614=CARTESIAN_POINT('',(-0.0167512299061745,-0.000324657885097498,0.0222487700938255));
#1615=CARTESIAN_POINT('',(0.,-0.00131046573394946,0.0221905530948775));
#1616=CARTESIAN_POINT('',(-0.0147116984601246,-0.00045070191532869,0.0222413265487331));
#1617=CARTESIAN_POINT('',(-0.014321412636258,0.0062043961116928,0.022634344148754));
#1618=CARTESIAN_POINT('',(-0.0131161746818225,0.0267559412669609,0.0238480180752462));
#1619=CARTESIAN_POINT('',(0.,0.0062043961116928,0.022634344148754));
#1620=CARTESIAN_POINT('',(0.014321412636258,0.0062043961116928,0.022634344148754));
#1621=CARTESIAN_POINT('',(0.0147116984601246,-0.00045070191532869,0.0222413265487331));
#1622=CARTESIAN_POINT('',(0.0131161746818225,0.0267559412669609,0.0238480180752462));
#1623=CARTESIAN_POINT('',(0.,0.0267559412669609,0.0238480180752462));
#1624=CARTESIAN_POINT('',(0.0167512299061745,-0.000324657885097498,0.0222487700938255));
#1625=CARTESIAN_POINT('',(0.0165017422357948,0.0039,0.0224982577642052));
#1626=CARTESIAN_POINT('',(0.,0.0039,0.0224982577642052));
#1627=CARTESIAN_POINT('',(0.0166739068300541,0.000984679537207916,0.));
#1628=CARTESIAN_POINT('',(0.0157517422357948,0.0166,0.0252517301364033));
#1629=CARTESIAN_POINT('',(0.0163838374175689,0.00589652158862335,0.0246196349546291));
#1630=CARTESIAN_POINT('',(0.0151196470540206,0.0273034784113767,0.0258838253181775));
#1631=CARTESIAN_POINT('',(0.0163838374175689,0.00589652158862335,0.0285));
#1632=CARTESIAN_POINT('',(0.0163838374175689,0.00589652158862335,0.0323803650453709));
#1633=CARTESIAN_POINT('',(0.0157517422357948,0.0166,0.0317482698635967));
#1634=CARTESIAN_POINT('',(0.0151196470540206,0.0273034784113767,0.0311161746818225));
#1635=CARTESIAN_POINT('',(0.0151196470540206,0.0273034784113767,0.0285));
#1636=CARTESIAN_POINT('',(0.0175787326908982,-0.0143370383730856,0.0163099210967693));
#1637=CARTESIAN_POINT('',(0.0165017422357948,0.0039,0.));
#1638=CARTESIAN_POINT('',(0.,0.00198502494555227,0.0336130890780185));
#1639=CARTESIAN_POINT('',(0.,0.0272445260022638,0.0321213862597088));
#1640=CARTESIAN_POINT('',(-0.0131161746818225,0.0272445260022638,0.0321213862597088));
#1641=CARTESIAN_POINT('',(0.0131161746818225,0.0272445260022638,0.0321213862597088));
#1642=CARTESIAN_POINT('',(-0.0145572853067152,0.00284171942074704,0.0335624968846015));
#1643=CARTESIAN_POINT('',(-0.014321412636258,0.00683582997382214,0.0333266242141444));
#1644=CARTESIAN_POINT('',(0.,0.00683582997382214,0.0333266242141444));
#1645=CARTESIAN_POINT('',(0.014321412636258,0.00683582997382214,0.0333266242141444));
#1646=CARTESIAN_POINT('',(0.0145572853067152,0.00284171942074704,0.0335624968846015));
#1647=CARTESIAN_POINT('',(0.0155,0.0039,0.0335));
#1648=CARTESIAN_POINT('',(-0.0155,0.0039,0.0335));
#1649=CARTESIAN_POINT('',(-0.0156756460357425,0.000925727128095022,0.));
#1650=CARTESIAN_POINT('',(-0.0157599078380233,-0.000501106057195253,0.024245303739863));
#1651=CARTESIAN_POINT('',(-0.0153855766232573,0.00583756917951041,0.0246196349546291));
#1652=CARTESIAN_POINT('',(-0.0141213862597088,0.0272445260022638,0.0258838253181775));
#1653=CARTESIAN_POINT('',(-0.0153855766232573,0.00583756917951046,0.));
#1654=CARTESIAN_POINT('',(-0.0153855766232573,0.00583756917951047,0.0323803650453709));
#1655=CARTESIAN_POINT('',(-0.0155624968846016,0.00284171942074704,0.0325572853067152));
#1656=CARTESIAN_POINT('',(-0.0141213862597088,0.0272445260022638,0.0311161746818225));
#1657=CARTESIAN_POINT('',(-0.0141213862597088,0.0272445260022638,0.));
#1658=CARTESIAN_POINT('',(-0.0155,0.0039,0.0285));
#1659=CARTESIAN_POINT('',(-0.0155,0.0039,0.0235));
#1660=CARTESIAN_POINT('',(-0.0155,0.0039,0.0235));
#1661=CARTESIAN_POINT('',(0.,-0.00136941814306235,0.0231888138891892));
#1662=CARTESIAN_POINT('',(0.,0.00626376115374188,0.0236395921941186));
#1663=CARTESIAN_POINT('',(0.014321412636258,0.00626376115374188,0.0236395921941186));
#1664=CARTESIAN_POINT('',(-0.014321412636258,0.00626376115374188,0.0236395921941186));
#1665=CARTESIAN_POINT('',(-0.0147186134450597,-0.000509250207006089,0.0232396112082476));
#1666=CARTESIAN_POINT('',(-0.0131161746818225,0.02681530630901,0.0248532661206108));
#1667=CARTESIAN_POINT('',(0.,0.02681530630901,0.0248532661206108));
#1668=CARTESIAN_POINT('',(0.0131161746818225,0.02681530630901,0.0248532661206108));
#1669=CARTESIAN_POINT('',(0.0147186134450597,-0.000509250207006089,0.0232396112082476));
#1670=CARTESIAN_POINT('',(0.,0.0039,0.0235));
#1671=CARTESIAN_POINT('',(0.0155,0.0039,0.0235));
#1672=CARTESIAN_POINT('',(0.0155,0.0039,0.0235));
#1673=CARTESIAN_POINT('',(0.0156756460357425,0.000925727128095022,0.));
#1674=CARTESIAN_POINT('',(0.0153855766232573,0.00583756917951046,0.));
#1675=CARTESIAN_POINT('',(0.0153855766232573,0.00583756917951046,0.0323803650453709));
#1676=CARTESIAN_POINT('',(0.0153855766232573,0.00583756917951046,0.0246196349546291));
#1677=CARTESIAN_POINT('',(0.0157599078380233,-0.000501106057195252,0.024245303739863));
#1678=CARTESIAN_POINT('',(0.0141213862597088,0.0272445260022638,0.0258838253181775));
#1679=CARTESIAN_POINT('',(0.0141213862597088,0.0272445260022638,0.));
#1680=CARTESIAN_POINT('',(0.0141213862597088,0.0272445260022638,0.0311161746818225));
#1681=CARTESIAN_POINT('',(0.0155624968846016,0.00284171942074705,0.0325572853067152));
#1682=CARTESIAN_POINT('',(0.0155,0.0039,0.0285));
#1683=CARTESIAN_POINT('',(0.,0.00489826079431168,0.0344427898266818));
#1684=CARTESIAN_POINT('',(-1.7347234759768E-18,0.0258296681835543,0.00816312719622851));
#1685=CARTESIAN_POINT('',(0.0131161746818225,0.0258296681835543,0.00816312719622851));
#1686=CARTESIAN_POINT('',(-0.0131161746818225,0.0258296681835543,0.00816312719622851));
#1687=CARTESIAN_POINT('',(0.0137187936590402,0.0156253201693335,0.00876574617344627));
#1688=CARTESIAN_POINT('',(0.014321412636258,0.00542097215511268,0.00936836515066404));
#1689=CARTESIAN_POINT('',(0.,0.00542097215511268,0.00936836515066404));
#1690=CARTESIAN_POINT('',(-0.014321412636258,0.00542097215511268,0.00936836515066404));
#1691=CARTESIAN_POINT('',(-0.0137187936590402,0.0156253201693335,0.00876574617344627));
#1692=CARTESIAN_POINT('',(-0.0137187936590402,0.0156253201693335,0.00876574617344627));
#1693=CARTESIAN_POINT('',(-0.0131161746818225,0.0258296681835543,0.00816312719622851));
#1694=CARTESIAN_POINT('',(-0.014321412636258,0.00542097215511268,0.00936836515066404));
#1695=CARTESIAN_POINT('',(0.,0.00542097215511268,0.00936836515066404));
#1696=CARTESIAN_POINT('',(0.014321412636258,0.00542097215511268,0.00936836515066404));
#1697=CARTESIAN_POINT('',(0.0137187936590402,0.0156253201693335,0.00876574617344627));
#1698=CARTESIAN_POINT('',(0.0131161746818225,0.0258296681835543,0.00816312719622851));
#1699=CARTESIAN_POINT('',(-1.7347234759768E-18,0.0258296681835543,0.00816312719622851));
#1700=CARTESIAN_POINT('',(0.0107604382642363,0.0163052379544355,0.0252517301364033));
#1701=CARTESIAN_POINT('',(0.0113925334460105,0.00560175954305888,0.0246196349546291));
#1702=CARTESIAN_POINT('',(0.0101283430824621,0.0270087163658121,0.0258838253181775));
#1703=CARTESIAN_POINT('',(0.0101283430824621,0.0270087163658121,0.0285));
#1704=CARTESIAN_POINT('',(0.0101283430824621,0.0270087163658121,0.0311161746818225));
#1705=CARTESIAN_POINT('',(0.0107604382642363,0.0163052379544355,0.0317482698635967));
#1706=CARTESIAN_POINT('',(0.0113925334460105,0.00560175954305888,0.0323803650453709));
#1707=CARTESIAN_POINT('',(0.0113925334460105,0.00560175954305888,0.0285));
#1708=CARTESIAN_POINT('',(0.00857268244022305,0.004422711360801,0.0285));
#1709=CARTESIAN_POINT('',(0.00857268244022305,0.004422711360801,0.0246196349546291));
#1710=CARTESIAN_POINT('',(0.00857268244022305,0.004422711360801,0.0323803650453709));
#1711=CARTESIAN_POINT('',(0.00920477762199726,0.0151261897721776,0.0317482698635967));
#1712=CARTESIAN_POINT('',(0.00983687280377147,0.0258296681835543,0.0311161746818225));
#1713=CARTESIAN_POINT('',(0.00983687280377147,0.0258296681835543,0.0285));
#1714=CARTESIAN_POINT('',(0.00983687280377147,0.0258296681835543,0.0258838253181775));
#1715=CARTESIAN_POINT('',(0.00920477762199726,0.0151261897721776,0.0252517301364033));
#1716=CARTESIAN_POINT('',(0.,0.0039,6.93889390390723E-18));
#1717=CARTESIAN_POINT('',(0.,0.0039,0.0335));
#1718=CARTESIAN_POINT('',(0.0475,0.0039,0.0335));
#1719=CARTESIAN_POINT('',(0.0475,0.0039,6.93889390390723E-18));
#1720=CARTESIAN_POINT('',(0.0475,0.0039,-0.0815));
#1721=CARTESIAN_POINT('',(0.,0.0039,-0.0815));
#1722=CARTESIAN_POINT('',(-0.0475,0.0039,-0.0815));
#1723=CARTESIAN_POINT('',(-0.0475,0.0039,0.));
#1724=CARTESIAN_POINT('',(-0.0475,0.0039,0.0335));
#1725=CARTESIAN_POINT('',(0.,0.0039,0.0335));
#1726=CARTESIAN_POINT('',(-1.7347234759768E-18,0.0039,-0.02425));
#1727=CARTESIAN_POINT('',(-0.01225,0.0039,-0.02425));
#1728=CARTESIAN_POINT('',(0.01225,0.0039,-0.02425));
#1729=CARTESIAN_POINT('',(-0.01225,0.0039,-0.0305));
#1730=CARTESIAN_POINT('',(-0.01225,0.0039,-0.03675));
#1731=CARTESIAN_POINT('',(0.,0.0039,-0.03675));
#1732=CARTESIAN_POINT('',(0.01225,0.0039,-0.03675));
#1733=CARTESIAN_POINT('',(0.01225,0.0039,-0.0305));
#1734=CARTESIAN_POINT('',(0.,-0.0065,-0.0305));
#1735=CARTESIAN_POINT('',(-0.0155,-0.0065,0.0285));
#1736=CARTESIAN_POINT('',(-0.0155,-0.0065,0.0335));
#1737=CARTESIAN_POINT('',(-0.0155,-0.0065,0.0235));
#1738=CARTESIAN_POINT('',(0.,-0.0065,0.0335));
#1739=CARTESIAN_POINT('',(-0.0435,-0.0065,0.0335));
#1740=CARTESIAN_POINT('',(-0.0435,-0.0065,-0.0305));
#1741=CARTESIAN_POINT('',(-0.0435,-0.0065,-0.0305));
#1742=CARTESIAN_POINT('',(0.,-0.0065,-0.0305));
#1743=CARTESIAN_POINT('',(-0.0385,-0.0065,-0.0305));
#1744=CARTESIAN_POINT('',(-0.0385,-0.0065,-0.0305));
#1745=CARTESIAN_POINT('',(-0.0385,-0.0065,-0.0055));
#1746=CARTESIAN_POINT('',(0.,-0.0065,-0.0055));
#1747=CARTESIAN_POINT('',(0.0385,-0.0065,-0.0055));
#1748=CARTESIAN_POINT('',(0.0385,-0.0065,-0.0305));
#1749=CARTESIAN_POINT('',(0.0385,-0.0065,-0.0305));
#1750=CARTESIAN_POINT('',(0.,-0.0065,-0.0305));
#1751=CARTESIAN_POINT('',(0.0435,-0.0065,-0.0305));
#1752=CARTESIAN_POINT('',(0.0435,-0.0065,-0.0305));
#1753=CARTESIAN_POINT('',(0.0435,-0.0065,0.0335));
#1754=CARTESIAN_POINT('',(0.,-0.0065,0.0335));
#1755=CARTESIAN_POINT('',(0.0155,-0.0065,0.0335));
#1756=CARTESIAN_POINT('',(0.0155,-0.0065,0.0285));
#1757=CARTESIAN_POINT('',(0.0155,-0.0065,0.0235));
#1758=CARTESIAN_POINT('',(0.,-0.0065,0.0235));
#1759=CARTESIAN_POINT('',(0.,-0.015,0.0335));
#1760=CARTESIAN_POINT('',(-0.0155,-0.0065,0.0335));
#1761=CARTESIAN_POINT('',(-0.0475,-0.015,0.0335));
#1762=CARTESIAN_POINT('',(-0.0475,-0.015,0.0335));
#1763=CARTESIAN_POINT('',(-6.93889390390723E-18,-0.015,0.0335));
#1764=CARTESIAN_POINT('',(0.0475,-0.015,0.0335));
#1765=CARTESIAN_POINT('',(0.0475,-0.015,0.0335));
#1766=CARTESIAN_POINT('',(0.0155,-0.0065,0.0335));
#1767=CARTESIAN_POINT('',(0.0435,-0.0075,0.0335));
#1768=CARTESIAN_POINT('',(0.0435,-0.0085,0.0335));
#1769=CARTESIAN_POINT('',(0.,-0.0085,0.0335));
#1770=CARTESIAN_POINT('',(-0.0435,-0.0085,0.0335));
#1771=CARTESIAN_POINT('',(-0.0435,-0.0075,0.0335));
#1772=CARTESIAN_POINT('',(0.0475,-0.015,6.93889390390723E-18));
#1773=CARTESIAN_POINT('',(0.0475,-0.015,-0.0815));
#1774=CARTESIAN_POINT('',(0.0475,-0.015,-0.0815));
#1775=CARTESIAN_POINT('',(0.0475,-0.015,-0.0815));
#1776=CARTESIAN_POINT('',(0.0475,-0.03,-0.0815));
#1777=CARTESIAN_POINT('',(0.0475,-0.03,6.93889390390723E-18));
#1778=CARTESIAN_POINT('',(0.0475,-0.03,-0.0835));
#1779=CARTESIAN_POINT('',(0.0475,-0.015,-0.0835));
#1780=CARTESIAN_POINT('',(0.0475,0.0189,-0.0835));
#1781=CARTESIAN_POINT('',(0.0475,0.0189,6.93889390390723E-18));
#1782=CARTESIAN_POINT('',(0.0475,0.0189,-0.0815));
#1783=CARTESIAN_POINT('',(0.0475,-0.03,-0.0815));
#1784=CARTESIAN_POINT('',(-0.0475,-0.015,0.));
#1785=CARTESIAN_POINT('',(-0.0475,-0.03,-0.0815));
#1786=CARTESIAN_POINT('',(-0.0475,0.0189,-0.0815));
#1787=CARTESIAN_POINT('',(-0.0475,0.0189,0.));
#1788=CARTESIAN_POINT('',(-0.0475,0.0189,-0.0835));
#1789=CARTESIAN_POINT('',(-0.0475,-0.015,-0.0835));
#1790=CARTESIAN_POINT('',(-0.0475,-0.03,-0.0835));
#1791=CARTESIAN_POINT('',(-0.0475,-0.03,0.));
#1792=CARTESIAN_POINT('',(-0.0475,-0.03,-0.0815));
#1793=CARTESIAN_POINT('',(-0.0475,-0.015,-0.0815));
#1794=CARTESIAN_POINT('',(-0.0475,-0.015,-0.0815));
#1795=CARTESIAN_POINT('',(-0.0475,-0.015,-0.0815));
#1796=CARTESIAN_POINT('',(-1.7347234759768E-18,-0.0094,-0.02425));
#1797=CARTESIAN_POINT('',(-3.01717976000251E-18,-0.00250000000000005,-0.02425));
#1798=CARTESIAN_POINT('',(-0.01225,-0.00250000000000005,-0.02425));
#1799=CARTESIAN_POINT('',(0.01225,-0.00250000000000004,-0.02425));
#1800=CARTESIAN_POINT('',(-0.01225,-0.0094,-0.02425));
#1801=CARTESIAN_POINT('',(0.01225,-0.0094,-0.02425));
#1802=CARTESIAN_POINT('',(-0.01225,-0.0094,-0.0305));
#1803=CARTESIAN_POINT('',(-0.01225,-0.0075,-0.0305));
#1804=CARTESIAN_POINT('',(-0.01225,-0.00250000000000005,-0.0305));
#1805=CARTESIAN_POINT('',(-0.01225,-0.0094,-0.0305));
#1806=CARTESIAN_POINT('',(-0.01225,-0.0094,-0.0305));
#1807=CARTESIAN_POINT('',(-0.01225,-0.0094,-0.03675));
#1808=CARTESIAN_POINT('',(-0.01225,-0.0094,-0.03675));
#1809=CARTESIAN_POINT('',(-0.01225,-0.00250000000000005,-0.0305));
#1810=CARTESIAN_POINT('',(0.01225,-0.0094,-0.0305));
#1811=CARTESIAN_POINT('',(0.01225,-0.0094,-0.0305));
#1812=CARTESIAN_POINT('',(0.01225,-0.0094,-0.03675));
#1813=CARTESIAN_POINT('',(0.01225,-0.0094,-0.0305));
#1814=CARTESIAN_POINT('',(0.01225,-0.0075,-0.0305));
#1815=CARTESIAN_POINT('',(0.01225,-0.0025,-0.0305));
#1816=CARTESIAN_POINT('',(0.01225,-0.00250000000000004,-0.0305));
#1817=CARTESIAN_POINT('',(0.01225,-0.0094,-0.03675));
#1818=CARTESIAN_POINT('',(0.,-0.0094,-0.0305));
#1819=CARTESIAN_POINT('',(0.,-0.0094,-0.0305));
#1820=CARTESIAN_POINT('',(0.,-0.0094,-0.03675));
#1821=CARTESIAN_POINT('',(0.,-0.0085,-0.0305));
#1822=CARTESIAN_POINT('',(0.0385,-0.0085,-0.0305));
#1823=CARTESIAN_POINT('',(0.0385,-0.0085,-0.0055));
#1824=CARTESIAN_POINT('',(0.0385,-0.0085,-0.0305));
#1825=CARTESIAN_POINT('',(0.,-0.0085,-0.0055));
#1826=CARTESIAN_POINT('',(-0.0385,-0.0085,-0.0055));
#1827=CARTESIAN_POINT('',(-0.0385,-0.0085,-0.0305));
#1828=CARTESIAN_POINT('',(-0.0385,-0.0085,-0.0305));
#1829=CARTESIAN_POINT('',(0.,-0.0085,-0.0305));
#1830=CARTESIAN_POINT('',(-0.0435,-0.0085,-0.0305));
#1831=CARTESIAN_POINT('',(-0.0435,-0.0085,-0.0305));
#1832=CARTESIAN_POINT('',(0.0435,-0.0085,-0.0305));
#1833=CARTESIAN_POINT('',(0.0435,-0.0085,-0.0305));
#1834=CARTESIAN_POINT('',(0.,-0.0085,-0.0305));
#1835=CARTESIAN_POINT('',(0.0435,-0.0075,-0.0305));
#1836=CARTESIAN_POINT('',(0.0435,-0.0075,-0.0305));
#1837=CARTESIAN_POINT('',(-0.0435,-0.0075,-0.0305));
#1838=CARTESIAN_POINT('',(-0.0435,-0.0075,-0.0305));
#1839=CARTESIAN_POINT('',(0.,-0.0075,-0.0305));
#1840=CARTESIAN_POINT('',(-0.0385,-0.0075,-0.0305));
#1841=CARTESIAN_POINT('',(-0.0385,-0.0125,-0.0305));
#1842=CARTESIAN_POINT('',(0.,-0.0125,-0.0305));
#1843=CARTESIAN_POINT('',(0.0385,-0.0125,-0.0305));
#1844=CARTESIAN_POINT('',(0.0385,-0.01,-0.0305));
#1845=CARTESIAN_POINT('',(0.0385,-0.01,-0.0305));
#1846=CARTESIAN_POINT('',(0.0385,-0.00250000000000004,-0.0305));
#1847=CARTESIAN_POINT('',(0.,-0.00250000000000005,-0.0305));
#1848=CARTESIAN_POINT('',(0.,-0.00250000000000005,-0.0305));
#1849=CARTESIAN_POINT('',(-0.0385,-0.0025,-0.0305));
#1850=CARTESIAN_POINT('',(-0.0385,-0.0075,-0.0305));
#1851=CARTESIAN_POINT('',(3.65204942310907E-18,-0.015,-0.0835));
#1852=CARTESIAN_POINT('',(3.65204942310907E-18,0.0189,-0.0835));
#1853=CARTESIAN_POINT('',(3.65204942310907E-18,-0.03,-0.0835));
#1854=CARTESIAN_POINT('',(0.,-0.0094,-0.03675));
#1855=CARTESIAN_POINT('',(0.0025,-0.0075,-0.0055));
#1856=CARTESIAN_POINT('',(0.0385,-0.01,-0.0055));
#1857=CARTESIAN_POINT('',(0.0385,-0.0125,-0.0055));
#1858=CARTESIAN_POINT('',(0.,-0.0125,-0.0055));
#1859=CARTESIAN_POINT('',(-0.0385,-0.0125,-0.0055));
#1860=CARTESIAN_POINT('',(-0.0385,-0.0075,-0.0055));
#1861=CARTESIAN_POINT('',(0.,-0.0125,-0.0055));
#1862=CARTESIAN_POINT('',(-0.0385,-0.0125,-0.0055));
#1863=CARTESIAN_POINT('',(0.0385,-0.0125,-0.0055));
#1864=CARTESIAN_POINT('',(-0.0385,-0.0075,-0.0055));
#1865=CARTESIAN_POINT('',(0.0385,-0.01,-0.0055));
#1866=CARTESIAN_POINT('',(0.0385,-0.01,-0.0055));
#1867=CARTESIAN_POINT('',(0.0385,-0.01,-0.0055));
#1868=CARTESIAN_POINT('',(0.0385,-0.00250000000000004,-0.0055));
#1869=CARTESIAN_POINT('',(0.0385,-0.00250000000000004,-0.0055));
#1870=CARTESIAN_POINT('',(-0.0385,-0.0075,-0.0055));
#1871=CARTESIAN_POINT('',(-0.0385,-0.0025,-0.0055));
#1872=CARTESIAN_POINT('',(-0.0385,-0.0025,-0.0055));
#1873=CARTESIAN_POINT('',(-0.0385,-0.0075,-0.0055));
#1874=CARTESIAN_POINT('',(0.0025,-0.0075,-0.0055));
#1875=CARTESIAN_POINT('',(0.,-0.00250000000000005,-0.0055));
#1876=CARTESIAN_POINT('',(0.,-0.00250000000000005,-0.0055));
#1877=CARTESIAN_POINT('',(-6.93889390390723E-18,-0.015,-0.0815));
#1878=CARTESIAN_POINT('',(-6.93889390390723E-18,-0.015,-0.0815));
#1879=CARTESIAN_POINT('',(0.,-0.00965,-0.0815));
#1880=CARTESIAN_POINT('',(0.,-0.03,-0.0815));
#1881=CARTESIAN_POINT('',(0.,0.0189,6.93889390390723E-18));
#1882=CARTESIAN_POINT('',(0.,0.0189,-0.0815));
#1883=CARTESIAN_POINT('',(0.,-0.03,-0.0815));
#1884=CARTESIAN_POINT('',(0.,-0.03,6.93889390390723E-18));
#1885=CARTESIAN_POINT('',(0.0155,-0.0065,0.0285));
#1886=CARTESIAN_POINT('',(0.0155,-0.0065,0.0235));
#1887=CARTESIAN_POINT('',(0.,-0.0065,0.0235));
#1888=CARTESIAN_POINT('',(-0.0155,-0.0065,0.0235));
#1889=CARTESIAN_POINT('',(-0.0155,-0.0065,0.0285));
#1890=MECHANICAL_DESIGN_GEOMETRIC_PRESENTATION_REPRESENTATION('',(#1203),
#1891);
#1891=(
GEOMETRIC_REPRESENTATION_CONTEXT(3)
GLOBAL_UNCERTAINTY_ASSIGNED_CONTEXT((#1892))
GLOBAL_UNIT_ASSIGNED_CONTEXT((#1895,#1894,#1893))
REPRESENTATION_CONTEXT('Part 2','TOP_LEVEL_ASSEMBLY_PART')
);
#1892=UNCERTAINTY_MEASURE_WITH_UNIT(LENGTH_MEASURE(1.E-8),#1895,
'DISTANCE_ACCURACY_VALUE','Maximum Tolerance applied to model');
#1893=(
NAMED_UNIT(*)
SI_UNIT($,.STERADIAN.)
SOLID_ANGLE_UNIT()
);
#1894=(
NAMED_UNIT(*)
PLANE_ANGLE_UNIT()
SI_UNIT($,.RADIAN.)
);
#1895=(
LENGTH_UNIT()
NAMED_UNIT(*)
SI_UNIT($,.METRE.)
);
#1896=PRODUCT_DEFINITION_SHAPE('','',#1897);
#1897=PRODUCT_DEFINITION('','',#1899,#1898);
#1898=PRODUCT_DEFINITION_CONTEXT('',#1905,'design');
#1899=PRODUCT_DEFINITION_FORMATION_WITH_SPECIFIED_SOURCE('','',#1901,
 .NOT_KNOWN.);
#1900=PRODUCT_RELATED_PRODUCT_CATEGORY('','',(#1901));
#1901=PRODUCT('Part 2','Part 2','Part 2',(#1903));
#1902=PRODUCT_CATEGORY('','');
#1903=PRODUCT_CONTEXT('',#1905,'mechanical');
#1904=APPLICATION_PROTOCOL_DEFINITION('international standard',
'ap242_managed_model_based_3d_engineering',2020,#1905);
#1905=APPLICATION_CONTEXT('managed model based 3d engineering');
ENDSEC;
END-ISO-10303-21;
